<svg width="36" height="36" viewBox="0 0 36 36" fill="none" xmlns="http://www.w3.org/2000/svg">
<g clip-path="url(#clip0_86_1704)">
<path d="M28.5001 1.5L34.5001 7.5M34.5001 7.5L28.5001 13.5M34.5001 7.5H22.5001M33.0001 25.38V29.88C33.0018 30.2978 32.9163 30.7113 32.7489 31.094C32.5816 31.4768 32.3361 31.8204 32.0283 32.1028C31.7204 32.3852 31.357 32.6002 30.9613 32.7341C30.5655 32.8679 30.1462 32.9176 29.7301 32.88C25.1144 32.3785 20.6806 30.8012 16.7851 28.275C13.1609 25.972 10.0881 22.8993 7.78514 19.275C5.25011 15.3618 3.67251 10.9065 3.18014 6.27C3.14266 5.8552 3.19196 5.43714 3.32489 5.04244C3.45783 4.64773 3.6715 4.28503 3.95229 3.97743C4.23309 3.66983 4.57485 3.42406 4.95583 3.25578C5.33681 3.0875 5.74865 3.00039 6.16514 3H10.6651C11.3931 2.99284 12.0988 3.25062 12.6508 3.7253C13.2027 4.19998 13.5633 4.85917 13.6651 5.58C13.8551 7.0201 14.2073 8.43409 14.7151 9.795C14.917 10.3319 14.9606 10.9154 14.841 11.4763C14.7214 12.0373 14.4434 12.5522 14.0401 12.96L12.1351 14.865C14.2705 18.6203 17.3798 21.7297 21.1351 23.865L23.0401 21.96C23.448 21.5567 23.9629 21.2788 24.5238 21.1591C25.0848 21.0395 25.6683 21.0832 26.2051 21.285C27.5661 21.7928 28.98 22.1451 30.4201 22.335C31.1488 22.4378 31.8142 22.8048 32.2899 23.3662C32.7656 23.9277 33.0184 24.6444 33.0001 25.38Z" stroke="#EBF3F5" stroke-width="4" stroke-linecap="round" stroke-linejoin="round"/>
</g>
<defs>
<clipPath id="clip0_86_1704">
<rect width="36" height="36" fill="white"/>
</clipPath>
</defs>
</svg>
