<svg width="106" height="101" viewBox="0 0 106 101" fill="none" xmlns="http://www.w3.org/2000/svg">
<path d="M3.83914 62.5557L0.618652 63.0355L29.0493 100.5L100.933 92.7304L102.29 89.6206L30.7841 96.1262L3.83914 62.5557Z" fill="#001016"/>
<path d="M55.5972 35.6197C55.5422 37.051 54.9348 38.4053 53.9023 39.3982C52.8699 40.391 51.4929 40.9451 50.0605 40.9441C49.042 40.8864 48.0624 40.5328 47.242 39.9266C46.4215 39.3204 45.7957 38.488 45.4415 37.5313C45.0872 36.5747 45.0198 35.5354 45.2475 34.541C45.4752 33.5466 45.9882 32.6403 46.7235 31.9332C47.4588 31.2261 48.3845 30.7489 49.387 30.5602C50.3896 30.3715 51.4254 30.4794 52.3674 30.8708C53.3095 31.2622 54.1169 31.92 54.6906 32.7635C55.2643 33.6071 55.5794 34.5997 55.5972 35.6197Z" fill="#001016"/>
<path d="M28.5876 27.4898C28.0651 29.4657 27.8625 31.5125 27.9878 33.5524C28.1313 35.6083 28.5407 37.6368 29.2058 39.5874C29.4354 40.3099 29.7066 41.0185 30.0179 41.7098C30.2947 42.4111 30.6454 43.0847 30.9406 43.7676C33.4434 48.5448 36.5511 52.9798 40.1868 56.9632C41.7648 58.8088 43.435 60.5159 45.1145 62.2138C47.2645 64.41 49.5069 66.5324 51.4724 68.9224C52.0814 69.6606 51.9338 69.6237 51.2694 69.1438C50.1508 68.3547 49.0815 67.498 48.0673 66.5785C45.7727 64.4746 43.5427 62.2661 41.3772 59.953C39.1927 57.6487 37.1496 55.2143 35.2592 52.6631C32.8818 49.5566 30.8461 46.203 29.1874 42.6602C27.3435 38.6998 26.5734 34.3241 26.9543 29.9721C27.2715 27.3094 28.1019 24.7335 29.3996 22.3869C30.3922 20.6315 31.5675 18.9859 32.9062 17.4777C34.2675 16.0102 35.8193 14.7315 37.52 13.6759C40.1446 12.0584 43.0245 10.8977 46.0372 10.2432C46.7016 10.0771 47.3568 9.97556 48.0212 9.8556C48.6856 9.73564 49.1747 9.70796 49.6084 9.68027C50.0421 9.65259 50.4112 9.68027 50.6972 9.68027C51.1062 9.69137 51.5109 9.76609 51.8969 9.90174C52.019 9.93472 52.1392 9.97477 52.2567 10.0217C52.4967 10.1786 51.4816 10.2985 49.7099 10.6584C44.4593 11.3782 38.9872 13.2975 34.8901 17.044C33.3981 18.4772 32.1124 20.1108 31.0698 21.8978C29.956 23.633 29.1303 25.537 28.6245 27.536L28.5876 27.4898Z" fill="#001016"/>
<path d="M47.2552 65.5459C47.2552 65.5459 40.602 68.0374 43.3241 69.3846C46.0463 70.7319 52.1274 69.8183 52.1274 69.8183L47.2552 65.5459Z" fill="#001016"/>
<path d="M60.1557 63.9301C60.331 63.6533 63.6438 63.681 64.9541 64.3823C66.2645 65.0836 65.0833 66.2278 64.1328 66.7815C61.8803 67.9002 59.4572 68.6362 56.9629 68.9592L60.1557 63.9301Z" fill="#001016"/>
<path d="M17.1829 57.0741C18.9269 56.9634 20.6802 56.8342 22.4243 56.6773L24.3252 56.4651C26.5767 56.2805 28.8191 56.1052 31.0707 55.893C32.0672 55.7915 33.0638 55.6531 34.042 55.5146L35.9429 55.2378C36.5938 55.1825 37.2483 55.1825 37.8992 55.2378C38.3144 55.2839 38.2683 55.57 37.9638 55.9391C37.5551 56.4357 37.0193 56.812 36.4135 57.028C35.1401 57.2864 33.8482 57.4894 32.5563 57.6647C31.2644 57.84 29.9449 57.8862 28.6253 57.9323C27.0474 57.9323 25.4325 58.2737 23.8361 58.4398C22.0736 58.6152 20.3019 58.7628 18.5394 58.9197L15.282 59.1781C13.6302 59.3165 11.9785 59.3995 10.3451 59.5564C9.07171 59.6671 7.8352 59.9255 6.56177 60.0178C6.28494 60.0178 6.01733 60.0916 5.73127 60.1008C4.67931 60.1008 4.34711 59.9901 4.11642 59.5103C4.07028 59.3995 4.00568 59.2888 3.96877 59.1781C3.8765 58.8089 4.29174 58.486 5.03919 58.3383C7.30907 57.8958 9.60557 57.603 11.9139 57.4617L17.1737 57.028L17.1829 57.0741Z" fill="#001016"/>
<path d="M92.656 91.1057C83.785 92.09 74.911 93.0127 66.0339 93.874C62.795 94.2062 59.5745 94.5845 56.3263 94.889C50.6051 95.3966 44.8932 95.8856 39.1535 96.2547C37.7232 96.347 36.2837 96.4301 34.8442 96.4854C34.1152 96.4854 33.3954 96.5408 32.6664 96.5408C32.2973 96.5408 31.9282 96.5408 31.5499 96.5408H31.2361H30.8209C30.6803 96.5305 30.5411 96.5057 30.4056 96.467L30.1196 96.1625L28.6339 94.4092L27.259 92.7574L24.4906 89.4262L14.903 77.587C10.8059 72.5487 6.69031 67.5011 2.90694 62.1951C1.74424 60.5157 2.1964 60.5526 3.49752 61.7061C5.6325 63.6362 7.61902 65.7246 9.44018 67.9533L21.9622 83.3913L28.2556 91.1057L31.2915 94.7322C31.2915 94.7322 31.3468 94.7322 31.3838 94.7322H31.8359C32.2235 94.7322 32.6295 94.7322 33.0355 94.7322C33.8568 94.7322 34.6781 94.7322 35.5086 94.6676C43.4444 94.2985 51.7125 93.3111 59.8329 92.5175C68.7653 91.6255 77.6855 90.6843 86.5933 89.6938L94.8245 88.771L102.317 87.8483H102.594H102.733H102.788V87.7929L102.465 87.3592L88.9926 69.4666L83.1883 61.7799C82.2286 60.5003 81.2812 59.2023 80.3462 57.8858C79.8663 57.2398 79.4234 56.5754 78.9528 55.9111C78.7313 55.5973 78.4822 55.2005 78.3068 54.9329L78.1776 54.7484C78.0979 54.7393 78.0174 54.7393 77.9377 54.7484H77.5594H77.0518H76.0276L73.9421 54.8222C68.6915 54.9698 66.9752 54.7668 65.8586 54.2408C65.6044 54.142 65.3576 54.0248 65.1204 53.8902C64.6405 53.5118 66.7537 53.2442 70.5832 52.9674C72.0043 52.8843 73.4346 52.7552 74.8833 52.6998C75.6123 52.6998 76.3505 52.6352 77.1072 52.626H78.03C78.1881 52.6318 78.3455 52.6503 78.5006 52.6813C78.8135 52.7266 79.1221 52.7976 79.4234 52.8936C79.6421 53.1411 79.8396 53.4066 80.014 53.6872L80.6599 54.6099L81.2782 55.5327L82.5516 57.3044L85.163 60.8756C88.6973 65.6371 92.333 70.4447 95.978 75.2616L105.206 87.4792L105.326 88.4019L105.381 88.8726L104.864 88.6603V88.7157V88.7895L104.809 88.9464L104.689 89.3432C104.689 89.5185 104.514 89.6385 104.311 89.7215C103.812 89.8138 103.277 89.8784 102.76 89.943L99.1338 90.4044L92.7298 91.161L92.656 91.1057Z" fill="#001016"/>
<path d="M64.5482 14.322C57.978 9.79119 49.0548 9.32058 41.405 11.7475C38.6178 12.646 36.0321 14.0783 33.7921 15.9646C32.8131 16.7962 31.9198 17.7236 31.1253 18.7329L29.9626 20.2924C29.6027 20.8276 29.289 21.3905 28.9475 21.9441C27.6687 24.1772 26.8616 26.6489 26.576 29.2064C26.0131 34.3462 27.7572 39.5507 30.3686 44.1368C32.7936 48.2141 35.6692 52.0059 38.9412 55.4408C41.0082 57.6647 43.149 59.8332 45.3083 62.0018C47.5105 64.1431 49.593 66.4043 51.5463 68.7749C52.709 70.3252 52.4045 70.2052 51.1587 69.1717C50.5035 68.6365 49.5808 67.926 48.5103 67.1139C47.9567 66.6894 47.3477 66.2465 46.7294 65.7298C46.1111 65.213 45.4836 64.6594 44.8838 64.0595C42.6138 61.9187 40.27 59.8148 38.1384 57.4986C35.9503 55.1995 33.8982 52.7746 31.9927 50.2364C30.0494 47.6688 28.3764 44.9073 27.0005 41.996C25.5566 39.0196 24.7012 35.7923 24.4813 32.4914C24.4489 31.9967 24.4489 31.5005 24.4813 31.0058C24.4813 30.5075 24.4813 30 24.5367 29.5017C24.626 28.4962 24.7801 27.4975 24.9981 26.5119C25.2366 25.5254 25.5449 24.5571 25.9208 23.6144C26.0869 23.1437 26.3269 22.6916 26.5299 22.2394C26.7278 21.7729 26.9559 21.3198 27.2127 20.8829C27.7008 20.0041 28.2432 19.1566 28.8368 18.3453C29.1413 17.9393 29.4274 17.5333 29.7596 17.1365C30.0918 16.7397 30.4147 16.3521 30.7562 15.983C32.1408 14.5071 33.7211 13.2279 35.4531 12.1812C39.2358 9.98516 43.4661 8.67286 47.8275 8.34244C49.9964 8.15331 52.1789 8.18114 54.3423 8.42549C56.4988 8.68808 58.6171 9.20218 60.6541 9.95729C65.7711 11.8422 70.0585 15.4728 72.7609 20.2093C74.6904 23.8216 75.6236 27.8824 75.4646 31.9747C75.2918 35.9916 74.4109 39.9465 72.8624 43.657C70.5093 49.4151 66.9197 54.3243 63.6346 59.3442C62.9056 60.4423 62.2135 61.5311 61.5122 62.6477C60.8109 63.7643 60.3126 64.5117 59.8789 65.2684C59.4452 66.0251 58.9562 66.5326 58.6978 67.0124C58.2684 67.6678 57.7837 68.2852 57.249 68.858C57.0829 69.0452 56.9073 69.2238 56.723 69.3932C56.5016 69.5593 56.5385 69.1533 56.7784 68.2674C56.9236 67.6965 57.1055 67.1355 57.3228 66.5879C57.5897 65.8123 57.8977 65.0515 58.2456 64.3087C60.7832 59.4549 64.1145 54.961 67.0027 50.2733C68.4713 47.9605 69.7549 45.5353 70.8415 43.0203C71.8875 40.5065 72.628 37.8762 73.0469 35.1859C73.6995 31.2383 73.3082 27.1887 71.9119 23.439C70.4281 19.7367 67.8534 16.5731 64.5297 14.3682L64.5482 14.322Z" fill="#001016"/>
<path d="M47.2189 31.6335C46.5939 32.1822 46.1027 32.8666 45.7828 33.6343C45.4629 34.402 45.3229 35.2327 45.3733 36.0628C45.5045 37.4849 46.1938 38.797 47.2903 39.7119C48.3868 40.6268 49.8012 41.0699 51.2237 40.9443C52.2216 40.8503 53.1767 40.4937 53.9921 39.9108C54.9886 39.1203 55.7615 38.0833 56.2344 36.9025C56.4097 36.5519 56.8434 36.6626 57.1572 37.1517C57.3289 37.4599 57.4239 37.8049 57.434 38.1575C57.4303 38.6053 57.3094 39.0444 57.0833 39.4309C56.1145 40.8469 54.6828 41.8812 53.0342 42.356C51.3855 42.8309 49.623 42.7168 48.0494 42.0332C47.1233 41.6235 46.2905 41.0292 45.6019 40.2866C44.9133 39.5441 44.3834 38.6689 44.0445 37.7146C43.7143 36.6604 43.6408 35.5426 43.8302 34.4543C44.0196 33.366 44.4664 32.3387 45.1334 31.4582C45.9168 30.3853 46.9752 29.5436 48.197 29.0221C49.1191 28.633 50.1124 28.4412 51.113 28.4592C52.1085 28.4889 53.0853 28.7378 53.9736 29.1882C55.3711 29.8618 56.5229 30.9556 57.2679 32.3164C57.4293 32.6131 57.5681 32.9215 57.6832 33.2391C58.043 34.4941 57.8492 34.9463 57.4155 35.1954C57.3202 35.2668 57.2144 35.3228 57.1018 35.3615C56.7419 35.463 56.4928 35.0016 56.2713 34.3095C55.9617 33.271 55.3713 32.338 54.5654 31.6135C53.7594 30.8889 52.7691 30.4009 51.7036 30.2032C50.9004 30.0983 50.084 30.1731 49.3133 30.422C48.5425 30.6709 47.8366 31.0879 47.2466 31.6427L47.2189 31.6335Z" fill="#001016"/>
<path d="M82.9489 78.3621L80.7804 78.5282C80.5128 78.5282 80.2636 78.6113 79.996 78.6298C79.0733 78.7036 78.1505 78.7866 77.2277 78.9066C76.8205 78.9634 76.4169 79.0435 76.0189 79.1465C75.5214 79.2891 75.0116 79.3849 74.4963 79.4326C74.3486 79.4326 74.2748 79.248 74.3394 78.9989C74.379 78.8513 74.4509 78.7143 74.5498 78.5978C74.6488 78.4813 74.7723 78.3882 74.9115 78.3252C75.9451 77.9626 77.0215 77.7362 78.1136 77.6516C78.7687 77.6516 79.4147 77.4025 80.0791 77.2917C80.7435 77.181 81.5278 77.061 82.2568 76.978L83.6041 76.8211C84.2869 76.7381 84.979 76.6827 85.6526 76.572C86.1786 76.4981 86.6769 76.3228 87.2121 76.2121C87.3229 76.2121 87.4428 76.1475 87.5535 76.1383C88.0057 76.0829 88.1626 76.1936 88.2549 76.6089C88.2549 76.7012 88.2549 76.7934 88.3195 76.8949C88.3408 77.0429 88.3101 77.1937 88.2327 77.3216C88.1553 77.4494 88.0359 77.5465 87.895 77.5962C86.9962 77.8872 86.0676 78.076 85.1266 78.1591L82.9674 78.3991L82.9489 78.3621Z" fill="#001016"/>
<path d="M14.968 64.5298H16.1492C16.2968 64.5298 16.4352 64.5298 16.5829 64.5298H18.1147C18.3362 64.5298 18.5669 64.5298 18.7883 64.5298C19.0779 64.4744 19.3754 64.4744 19.665 64.5298C19.8403 64.5759 19.6096 65.2034 19.3051 65.268C18.747 65.3843 18.1767 65.4308 17.6072 65.4064C17.2539 65.4113 16.9018 65.4484 16.5552 65.5172L15.3833 65.6464L14.6543 65.711C14.2852 65.711 13.9161 65.7755 13.5562 65.8309C13.1963 65.8863 13.0025 65.9693 12.7165 66.0339H12.5319C12.292 66.0339 12.2182 66.0339 12.1536 65.7386C12.1339 65.6845 12.1185 65.629 12.1074 65.5725C12.0896 65.4857 12.1007 65.3953 12.139 65.3153C12.1773 65.2354 12.2408 65.1701 12.3197 65.1296C12.7872 64.9135 13.2852 64.7703 13.7961 64.7051C14.1837 64.6498 14.5712 64.6128 14.968 64.5759V64.5298Z" fill="#001016"/>
<path d="M85.1171 81.9893H84.1943C84.0836 81.9893 83.9729 82.0446 83.8529 82.0446C83.4469 82.0446 83.0409 82.0446 82.6348 82.1C82.4588 82.1214 82.2855 82.1616 82.1181 82.22C81.9091 82.3225 81.6765 82.3671 81.4445 82.3492C81.2876 82.3492 81.2414 81.2972 81.4998 81.2234C81.9685 81.0967 82.4557 81.053 82.9394 81.0942C83.231 81.0955 83.5219 81.0645 83.8068 81.0019L84.7295 80.9189L85.3201 80.8635C85.6301 80.8443 85.9383 80.8042 86.2429 80.7435C86.4644 80.6789 86.6674 80.5867 86.8796 80.5036L87.018 80.4482C87.1933 80.4482 87.2764 80.4482 87.3594 80.7066L87.4148 80.9558C87.4443 81.0343 87.4504 81.1196 87.4324 81.2015C87.4144 81.2834 87.373 81.3583 87.3133 81.4172C86.9692 81.6958 86.5534 81.8718 86.1137 81.9247C85.8 81.9893 85.477 82.017 85.1909 82.0539L85.1171 81.9893Z" fill="#001016"/>
<path d="M76.0922 1.05262C76.2148 0.899748 76.3666 0.77282 76.5388 0.679234C76.711 0.585648 76.9001 0.527276 77.095 0.507521C77.29 0.487766 77.487 0.507024 77.6744 0.564172C77.8619 0.621319 78.0361 0.715213 78.1868 0.840378C80.7983 3.38724 72.9178 4.36538 76.0922 1.05262Z" stroke="#001016" stroke-width="1.2" stroke-miterlimit="10"/>
<path d="M83.4008 12.3754C83.6522 12.0783 84.009 11.8902 84.3962 11.8506C84.7833 11.811 85.1708 11.923 85.4771 12.1631C88.107 14.71 80.2265 15.6697 83.4008 12.3754Z" fill="#001016"/>
<path d="M15.374 29.7137C15.1864 29.486 14.917 29.341 14.6236 29.31C14.3302 29.2789 14.0364 29.3642 13.8053 29.5476C11.8121 31.4762 17.7824 32.196 15.374 29.7137Z" fill="#001016"/>
</svg>
