<svg viewBox="0 0 68 68" fill="none" xmlns="http://www.w3.org/2000/svg">
<path d="M53.9999 43.8402V49.8402C54.0021 50.3972 53.888 50.9485 53.6649 51.4589C53.4417 51.9692 53.1145 52.4274 52.704 52.8039C52.2936 53.1805 51.809 53.4672 51.2814 53.6456C50.7537 53.8241 50.1946 53.8903 49.6399 53.8402C43.4855 53.1715 37.5739 51.0685 32.3799 47.7002C27.5475 44.6295 23.4505 40.5325 20.3799 35.7002C16.9998 30.4826 14.8964 24.5422 14.2399 18.3602C14.1899 17.8071 14.2556 17.2497 14.4329 16.7234C14.6101 16.1972 14.895 15.7136 15.2694 15.3034C15.6438 14.8933 16.0995 14.5656 16.6074 14.3412C17.1154 14.1169 17.6645 14.0007 18.2199 14.0002H24.2199C25.1905 13.9906 26.1314 14.3344 26.8674 14.9673C27.6033 15.6002 28.084 16.4791 28.2199 17.4402C28.4731 19.3603 28.9428 21.2456 29.6199 23.0602C29.889 23.776 29.9472 24.554 29.7877 25.302C29.6282 26.0499 29.2576 26.7364 28.7199 27.2802L26.1799 29.8202C29.027 34.8273 33.1728 38.9731 38.1799 41.8202L40.7199 39.2802C41.2636 38.7425 41.9502 38.3719 42.6981 38.2124C43.446 38.0529 44.224 38.1111 44.9399 38.3802C46.7544 39.0573 48.6397 39.5269 50.5599 39.7802C51.5314 39.9173 52.4187 40.4066 53.0529 41.1552C53.6872 41.9038 54.0242 42.8593 53.9999 43.8402Z" stroke="currentColor" stroke-width="4" stroke-linecap="round" stroke-linejoin="round"/>
</svg>
