<svg width="100" height="101" viewBox="0 0 100 101" fill="none" xmlns="http://www.w3.org/2000/svg">
<path d="M41.6612 95.7616L39.2787 96.6473C39.2256 96.6473 39.1547 96.727 39.1281 96.6473L39.0307 96.5056L38.827 96.231L38.4373 95.6642L37.6934 94.5748L36.0637 92.1392C34.9744 90.5273 33.9293 88.8711 32.8576 87.2415C31.786 85.6118 30.7674 83.9468 29.7223 82.2906C28.6773 80.6344 27.6764 78.9693 26.6668 77.2954C25.17 74.8687 23.7264 72.4065 22.3004 69.9444C17.3628 61.1855 13.0392 52.0944 9.36082 42.7366C7.8109 38.5563 6.26983 34.3405 5.10075 30.0627C4.27708 27.3348 3.66597 24.5361 3.07257 21.7463L2.41718 17.4685C2.24004 16.0514 2.17805 14.6255 2.07177 13.1996C1.96549 11.4282 2.39946 11.6497 2.95743 13.0933C3.31907 14.0703 3.61495 15.0704 3.8431 16.0869C4.12652 17.3268 4.55164 18.7439 4.80848 20.3469C5.88917 25.9571 7.36904 31.483 9.23682 36.8824C11.141 42.2938 13.3286 47.6167 15.7022 52.913C18.7407 59.3368 22.1169 65.5954 25.8165 71.6626C29.7932 78.3848 34.0267 84.9476 38.4285 91.4307L39.447 92.9186L39.8101 93.4589C39.8898 93.5652 39.9518 93.7334 40.0581 93.7777L41.1563 93.3792C41.732 93.1666 42.3254 92.9895 42.9277 92.8035C45.2528 92.0751 47.6186 91.4836 50.013 91.0321C57.2932 89.7302 64.6885 89.4999 71.9245 89.1457C77.4512 88.9877 82.9553 88.3715 88.3802 87.3035C88.9647 87.1795 89.5227 87.0112 90.0895 86.8606C90.6563 86.7101 91.2055 86.5152 91.7457 86.3204C92.6027 86.0321 93.4425 85.695 94.261 85.3107C94.5799 85.1424 94.8987 85.0185 95.1467 84.8856C95.3947 84.7528 95.6427 84.611 95.8641 84.5048C96.4816 84.1497 97.131 83.8532 97.8037 83.6191C98.0387 83.5274 98.2781 83.4476 98.5211 83.38C98.8311 83.38 98.7602 83.7254 98.3174 84.5313C97.5629 85.7062 96.5476 86.6912 95.3504 87.4098C93.0379 88.7545 90.513 89.695 87.8842 90.1908C85.3001 90.7152 82.6849 91.0731 80.0549 91.2624C74.8117 91.6964 69.5509 91.8027 64.3254 92.0949C56.5847 92.5289 48.8085 93.2729 41.6346 95.7882L41.6612 95.7616Z" fill="#001016"/>
<path d="M78.2468 40.0529C79.4956 43.6487 80.9038 47.2002 82.4449 50.6809C82.994 51.9651 83.6671 53.1874 84.2162 54.4627C86.2535 58.9447 88.5239 63.317 91.0181 67.5618L91.9038 68.97L92.7895 70.3428C93.3917 71.2284 93.9586 72.1938 94.5608 73.0529C95.3845 74.1689 96.1727 75.3291 97.0584 76.3919C97.4924 76.9233 97.9441 77.4813 98.3072 78.0481C98.6703 78.6149 99.1929 79.1198 99.6003 79.66C100.123 80.3508 99.8394 80.5457 99.0777 80.2091C97.8608 79.7193 96.775 78.952 95.907 77.9684C94.9328 76.8701 94.056 75.7188 93.188 74.5586C92.3201 73.3983 91.5053 72.1938 90.6816 71.0159C89.1405 68.5626 87.6969 66.0473 86.395 63.4523L83.9505 58.7582C83.0648 57.1994 82.3032 55.5875 81.5415 53.9933C79.8587 50.4506 78.3708 46.8548 76.9803 43.2059C76.5198 42.0988 76.1566 40.9474 75.7581 39.8226C75.3595 38.6978 74.9521 37.573 74.6156 36.4217C74.1019 34.6503 73.5262 32.941 73.0568 31.1874C72.5874 29.4337 72.118 27.6447 71.7283 25.8733C71.436 24.5006 71.1083 23.1455 70.7895 21.7904C70.4706 20.4353 70.3112 19.0448 70.0809 17.6632L69.9304 16.7775C69.9304 16.4675 69.8684 16.1664 69.8507 15.8918C69.709 13.5803 69.8507 12.8274 70.3998 12.3492C70.5101 12.2253 70.635 12.1153 70.7718 12.0215C71.188 11.8089 71.6043 12.73 71.8523 14.3419C72.5407 19.3166 73.5465 24.2421 74.8636 29.0883C75.3064 30.9394 75.8909 32.7638 76.4578 34.5972C77.0246 36.4305 77.6711 38.2461 78.2911 40.0618L78.2468 40.0529Z" fill="#001016"/>
<path d="M82.5076 93.8397C79.6912 93.9371 69.8425 94.0257 62.394 95.4339C52.7845 97.2053 42.5551 98.9235 38.5341 100.5C19.2266 76.5869 4.38274 51.5933 0.618652 26.1038L3.68307 21.082C3.68307 21.082 15.613 62.9742 27.8972 78.4114L39.4641 95.7173C39.4641 95.7173 49.1179 90.9347 88.0342 89.7214C88.0342 89.7214 84.4738 93.7689 82.5076 93.8397Z" fill="#001016"/>
<path d="M54.2022 12.0485C52.1563 12.1902 50.1104 12.2256 48.0734 12.2699C47.3294 12.2699 46.5943 12.3319 45.8503 12.3231C43.1933 12.3231 40.6249 12.1725 38.021 12.0219C36.8696 11.9599 35.7006 11.9511 34.558 11.9245C33.0728 11.9499 31.5888 11.8223 30.1297 11.5437C29.6692 11.4285 29.7489 11.1363 30.1297 10.7997C30.6832 10.3232 31.3836 10.0512 32.1136 10.0292C35.1202 9.98192 38.1272 10.1002 41.1209 10.3835C42.9528 10.4852 44.7889 10.4852 46.6209 10.3835C48.6402 10.3835 50.6595 10.2595 52.67 10.1355C53.9099 10.0292 55.1498 9.94947 56.3809 9.7812C58.2432 9.5835 60.0917 9.27295 61.9164 8.85125C63.2965 8.4847 64.6515 8.02911 65.9727 7.48732C66.265 7.37218 66.5484 7.25704 66.8584 7.15962C67.0899 7.0741 67.3266 7.00311 67.5669 6.94706C67.7404 6.9252 67.916 6.9252 68.0895 6.94706C68.3557 6.97699 68.6062 7.08834 68.8069 7.2659C68.9004 7.33348 68.9892 7.40746 69.0726 7.48732C69.2851 7.71759 68.9751 8.24013 68.1869 8.7981C65.755 10.1245 63.1072 11.0091 60.3664 11.4108C58.3205 11.7562 56.2481 12.0042 54.1667 12.1636L54.2022 12.0485Z" fill="#001016"/>
<path d="M16.4098 11.1891L13.3631 10.7463C12.9912 10.6931 12.6192 10.6931 12.2472 10.64C10.9453 10.454 9.64334 10.2591 8.3414 10.144C7.76626 10.1086 7.18949 10.1086 6.61435 10.144C5.90089 10.1969 5.18449 10.1969 4.47103 10.144C4.24961 10.144 4.19647 9.8783 4.32932 9.55946C4.41433 9.35973 4.5343 9.17678 4.68359 9.0192C4.84485 8.8557 5.05164 8.74459 5.27699 8.70036C6.83655 8.46151 8.42626 8.5035 9.97103 8.82435C10.8567 8.99263 11.8486 8.97492 12.7875 9.06348L15.8784 9.40004L17.7738 9.6126C18.7303 9.71002 19.6868 9.83402 20.6433 9.86944C21.3873 9.86944 22.1224 9.86944 22.8575 9.8163C23.0194 9.79853 23.1827 9.79853 23.3446 9.8163C23.5721 9.80771 23.7941 9.887 23.9646 10.0377C24.0966 10.164 24.1863 10.3279 24.2214 10.5071C24.2214 10.5957 24.2746 10.6754 24.2834 10.7551C24.3277 10.9942 24.062 11.2865 23.6015 11.4814C22.2473 11.7457 20.8588 11.7846 19.492 11.5965C18.4646 11.4991 17.4372 11.3574 16.4098 11.2422V11.1891Z" fill="#001016"/>
<path d="M16.0819 6.39744C15.9668 6.70742 15.6657 6.8137 15.1963 6.8137C15.0369 6.8137 14.7003 6.61 14.7092 6.49486C14.7265 6.25633 14.7621 6.01947 14.8154 5.78633C15.0293 5.39827 15.2783 5.03065 15.5594 4.6881C15.9675 4.21328 16.4383 3.79615 16.9588 3.44816C17.6199 3.02163 18.3725 2.75759 19.1552 2.67763C20.7121 2.52769 22.2788 2.8355 23.6633 3.5633C23.9533 3.74062 24.2235 3.94845 24.4692 4.18327C25.3285 4.94599 26.1008 5.80144 26.772 6.73399C26.8671 6.89347 26.9833 7.03944 27.1174 7.16797C27.4899 7.64936 27.7884 8.18371 28.003 8.75332C28.2454 9.30618 28.4323 9.88173 28.561 10.4715C28.6939 11.3572 28.809 12.2429 28.8976 13.1285C28.9333 13.253 28.9333 13.3849 28.8976 13.5094C28.8092 13.7707 28.8092 14.0539 28.8976 14.3153C28.9596 14.6784 29.0127 15.0416 29.0393 15.4135C29.0277 15.6113 28.9951 15.8073 28.9419 15.9981C28.8976 16.1752 28.6142 16.1575 28.5699 16.1132C28.5256 16.0689 28.3485 16.1132 28.2422 16.1841C28.2042 16.1917 28.165 16.1917 28.127 16.1841C27.6768 15.4854 27.2971 14.7437 26.9934 13.9699L26.5417 12.4111C26.375 11.8368 26.1769 11.2721 25.9483 10.7195C25.8922 10.5558 25.8536 10.3865 25.8332 10.2147C25.6788 9.84087 25.5013 9.47704 25.3018 9.1253C25.1108 8.78411 24.8977 8.45571 24.6641 8.14221C24.3985 7.79721 24.1587 7.4331 23.9467 7.05283C23.9077 6.97487 23.8499 6.90788 23.7784 6.85799C23.2361 6.35434 22.6424 5.90906 22.0071 5.52948C21.6617 5.37021 21.2992 5.25134 20.9266 5.17521C20.8629 5.14933 20.8008 5.11975 20.7406 5.08665C20.6623 5.048 20.5787 5.02114 20.4926 5.00694C19.6375 4.82023 18.7444 4.92952 17.9596 5.31692C17.8799 5.37892 17.5964 5.44977 17.3307 5.60034C17.1067 5.69905 16.9003 5.83367 16.7196 5.99889C16.6488 6.10517 16.1174 6.25573 16.0819 6.39744Z" fill="#001016"/>
<path d="M47.727 4.06863C47.6295 4.35204 47.3373 4.43176 46.8413 4.4229C46.6819 4.4229 46.3453 4.21034 46.3542 4.0952C46.3589 3.87463 46.3856 3.65507 46.4339 3.43981C46.6224 3.07105 46.8543 2.72615 47.1247 2.41243C47.4874 1.96862 47.9108 1.57805 48.3824 1.2522C49.0003 0.844685 49.709 0.595287 50.446 0.525956C51.899 0.404272 53.3557 0.712253 54.6352 1.41162C54.9097 1.56509 55.1679 1.7461 55.4057 1.95188C56.1949 2.66049 56.9073 3.45012 57.5313 4.30776C57.6228 4.45691 57.7329 4.59381 57.859 4.71517C58.201 5.15636 58.4756 5.64586 58.6738 6.16767C58.9051 6.66901 59.0889 7.19087 59.2229 7.72644C59.3292 8.56783 59.4266 9.38264 59.5064 10.1797C59.5064 10.2949 59.5684 10.41 59.5064 10.5252C59.4177 10.7683 59.4177 11.0349 59.5064 11.278C59.5627 11.6093 59.6011 11.9434 59.6215 12.2788C59.6078 12.4604 59.569 12.6392 59.5064 12.8102C59.5064 12.9785 59.1875 12.9696 59.1432 12.9253C59.099 12.881 58.9218 12.9253 58.8155 13.005H58.7004C58.2691 12.3756 57.9068 11.7016 57.6199 10.9946L57.1948 9.55978C56.9733 8.8601 56.7165 8.16042 56.6456 8.02757C56.5874 7.88023 56.5516 7.72499 56.5394 7.56702C56.4 7.22841 56.2373 6.89992 56.0523 6.58393C55.8789 6.27509 55.6835 5.97911 55.4677 5.69826C55.2295 5.38662 55.0191 5.0547 54.8389 4.70631C54.804 4.63578 54.7523 4.57494 54.6883 4.52918C54.1924 4.07762 53.6524 3.67706 53.0764 3.33353C52.7644 3.183 52.438 3.06431 52.1022 2.97926C52.0407 2.97106 51.9809 2.95312 51.925 2.92612C51.8549 2.89037 51.7805 2.86359 51.7036 2.84641C50.9406 2.67794 50.1429 2.77805 49.4452 3.12982C49.3743 3.18296 49.1175 3.2361 48.8783 3.36895C48.6736 3.45456 48.4849 3.57436 48.3204 3.72322C48.2495 3.81179 47.7535 3.93578 47.727 4.06863Z" fill="#001016"/>
<path d="M47.2223 31.2854C44.5653 31.4271 41.8197 31.4802 39.1184 31.4802C38.1353 31.4802 37.1522 31.4802 36.1691 31.4802C32.7032 31.3976 29.2432 31.2205 25.7891 30.9488L21.1925 30.568C19.2186 30.4371 17.2693 30.0562 15.3913 29.4344C14.8068 29.2129 14.9396 29.1067 15.4799 29.0358C16.3596 28.9072 17.2511 28.8805 18.1369 28.9561C22.0427 29.3281 25.9928 29.6558 29.9783 29.9126C32.3696 30.0809 34.8672 30.0189 37.3116 29.9923C40.0041 29.9923 42.6965 29.9097 45.3889 29.7443C47.0451 29.6646 48.6925 29.5406 50.3487 29.3901C52.8386 29.174 55.3138 28.8132 57.7617 28.3096C59.6077 27.8977 61.4085 27.3043 63.1377 26.5382L64.2183 26.0245C65.5556 25.3868 65.9896 25.2097 66.4236 25.2186C66.5326 25.2097 66.6422 25.2097 66.7513 25.2186C66.9018 25.2186 66.9018 25.4046 66.7513 25.6968C66.6583 25.8863 66.5487 26.0671 66.4236 26.2371C66.238 26.4551 66.0398 26.6621 65.8302 26.8571C65.4677 27.1522 65.0892 27.4272 64.6965 27.6807C64.2891 27.911 63.8728 28.1413 63.4566 28.3273C62.611 28.7065 61.7411 29.029 60.8527 29.2926C59.0723 29.7915 57.2619 30.1761 55.4324 30.444C52.7134 30.8603 49.9856 31.0994 47.2577 31.2765L47.2223 31.2854Z" fill="#001016"/>
<path d="M42.0331 56.4376C42.5025 57.3233 42.9985 58.2798 43.4945 59.1921C43.9904 60.1043 44.5218 61.0077 45.0887 61.8491L46.364 63.7444C47.852 65.9851 49.393 68.1727 51.0935 70.2895C51.8463 71.1752 52.6523 72.1228 53.476 72.9465C54.5388 74.0447 55.6547 75.0898 56.6467 76.2501C56.9566 76.6132 56.7264 76.7726 56.2392 76.7017C55.5229 76.5678 54.8595 76.233 54.3262 75.7364C52.0021 73.5653 49.8932 71.1747 48.0291 68.5979C46.922 67.048 45.6644 65.5069 44.5838 63.8861C43.9904 63.0004 43.397 62.1148 42.8125 61.1671L41.9888 59.7855L41.298 58.4304C40.6426 57.2879 40.0935 56.0745 39.5267 54.8877C39.1193 54.002 38.703 53.0632 38.3222 52.1333C37.9413 51.2033 37.4896 50.3 37.1619 49.3523C36.9139 48.626 36.6394 47.9086 36.356 47.1913C36.0726 46.4739 35.8777 45.7388 35.6652 44.9948C35.5569 44.6825 35.4711 44.3628 35.4083 44.0383C35.2046 42.7895 35.3375 42.3555 35.612 42.0455C35.6677 41.9667 35.7331 41.8952 35.8069 41.833C36.0283 41.6824 36.3471 42.1429 36.6925 42.9843C37.1265 44.242 37.5782 45.5173 37.9945 46.8281C38.4107 48.1389 38.9244 49.432 39.4647 50.7162C40.2334 52.667 41.1026 54.5766 42.0685 56.4376H42.0331Z" fill="#001016"/>
<path d="M59.7821 53.5854C60.2427 54.3914 60.6678 55.215 61.1992 56.0033C61.7306 56.7915 62.2 57.5975 62.7314 58.3769C63.1034 58.9526 63.5373 59.484 63.927 60.0419C65.3175 62.0347 66.7346 64.0097 68.258 65.9051C68.9222 66.7907 69.6485 67.5613 70.3659 68.3584C71.3348 69.3526 72.2484 70.3993 73.1026 71.4936C73.3594 71.839 73.1026 71.9896 72.6597 71.9187C72.0155 71.7973 71.4212 71.4893 70.9504 71.0331C68.9383 69.0185 67.0819 66.8542 65.3972 64.5588C64.3787 63.1772 63.2274 61.8221 62.2 60.3962C61.084 58.7961 60.0212 57.1812 59.0116 55.5516C58.3916 54.5331 57.7982 53.5057 57.2402 52.4517C56.3546 50.8753 55.6372 49.2191 54.9109 47.5806C54.3795 46.2963 53.7861 45.0564 53.3699 43.719C53.2565 43.4302 53.1618 43.1344 53.0865 42.8334C52.8827 41.6997 53.0067 41.3012 53.2813 41.0089C53.3417 40.9396 53.4068 40.8745 53.4761 40.8141C53.6976 40.6723 54.0164 41.0798 54.3618 41.8149C55.2475 44.0202 56.1332 46.3318 57.1871 48.5991C57.5857 49.4848 57.9931 50.2819 58.4182 51.1232C58.8433 51.9646 59.3038 52.7883 59.7821 53.5943V53.5854Z" fill="#001016"/>
<path d="M53.785 51.4343C51.8189 51.6203 49.8527 51.7355 47.8865 51.8063C47.1691 51.8063 46.4606 51.8949 45.7432 51.9037C43.219 51.9037 40.6949 51.8417 38.1796 51.6735L34.8317 51.4609C33.4029 51.3943 31.983 51.1986 30.5894 50.8764C30.1554 50.7701 30.2528 50.5575 30.6602 50.3538C31.2658 50.091 31.9224 49.967 32.5821 49.9907C35.4428 50.159 38.2858 50.2564 41.182 50.4601C42.9536 50.5235 44.7274 50.4939 46.496 50.3715C48.4356 50.2918 50.3841 50.1767 52.3237 49.9818C53.5193 49.8667 54.715 49.7427 55.8664 49.5567C57.6568 49.3258 59.4314 48.9857 61.1804 48.5382C62.496 48.1675 63.7763 47.6815 65.0065 47.0857L65.7681 46.6783C66.6538 46.1823 66.9284 46.076 67.3712 46.1557C67.4686 46.1557 67.5838 46.1557 67.6812 46.1557C67.9912 46.2 67.876 46.882 67.1409 47.5197C66.0892 48.3783 64.8882 49.0358 63.5982 49.4593C62.3226 49.8942 61.0211 50.2491 59.7013 50.5221C57.7457 50.9185 55.771 51.2142 53.785 51.4078V51.4343Z" fill="#001016"/>
<path d="M60.7824 66.1099C59.076 66.2752 57.3666 66.4021 55.6543 66.4907C55.0344 66.4907 54.4144 66.6058 53.7856 66.6236C51.5891 66.6826 49.3927 66.6826 47.1962 66.6236L44.2735 66.5261C43.0205 66.5252 41.7719 66.3766 40.5537 66.0833C40.1728 65.977 40.2614 65.7645 40.6157 65.5608C41.1322 65.2899 41.7063 65.1471 42.2896 65.1445C44.7606 65.2065 47.2405 65.1445 49.7646 65.3039C51.3082 65.3195 52.8516 65.2515 54.3878 65.1002C56.0795 64.9939 57.7799 64.8522 59.4627 64.6751C60.5078 64.56 61.544 64.4271 62.5714 64.2677C64.1358 64.0723 65.6859 63.7764 67.2123 63.382C68.3446 63.0576 69.4353 62.6029 70.4627 62.0269C70.6841 61.9118 70.8436 61.7524 71.0561 61.6461C71.2687 61.5398 71.5787 61.2741 71.7115 61.2121C71.7821 61.1774 71.8564 61.1507 71.9329 61.1324L72.1809 61.0616C72.2783 61.0616 72.3669 60.973 72.4643 60.9464C72.5618 60.9199 72.7389 60.9464 72.8186 61.2387C72.8457 61.4414 72.8288 61.6475 72.7692 61.8431C72.7096 62.0387 72.6087 62.2192 72.4732 62.3723C72.0507 62.8576 71.5319 63.2497 70.9498 63.5237C70.4288 63.8251 69.8837 64.0828 69.3202 64.2943C68.2093 64.7099 67.0697 65.0444 65.9104 65.2951C64.2172 65.6771 62.5056 65.9727 60.7824 66.1807V66.1099Z" fill="#001016"/>
</svg>
