<svg width="1485" height="522" viewBox="0 0 1485 522" fill="none" xmlns="http://www.w3.org/2000/svg">
<mask id="path-1-inside-1_287_1956" fill="white">
<path fill-rule="evenodd" clip-rule="evenodd" d="M3.5026e-05 48.1126C2.33507e-05 48.1126 1.16753e-05 48.1126 0 48.1126V32.1104C18.9116 30.764 33.7732 17.0942 33.7732 0.42943V0.429295H36.8442V0.428711H1447.16V0.42878H1447.28C1448.84 16.746 1464.69 29.5688 1484 29.5689L1484 19.4287L1484 473.429L1484.17 473.428V489.432C1465.26 490.778 1450.4 504.448 1450.4 521.113H1447.16V521.428L55.2652 521.428V521.429H36.718C35.158 505.111 19.3148 492.288 0.000250422 492.288V487.872H3.5026e-05V48.1126ZM47.9435 19.4287H1433.7C1439.84 30.5191 1451.18 39.0538 1465 42.6789V476.632C1458.5 478.899 1452.66 482.286 1447.81 486.515V485.873V36.8682V34.8682H1445.81H38.8438H36.8438V36.8682V485.873V487.501C31.6631 483.774 25.6154 480.913 19 479.178V44.9688C32.3348 40.3652 42.9004 31.0599 47.9435 19.4287ZM1445.81 487.873H1446.32C1441.89 492.066 1438.39 496.998 1436.09 502.428H50.2981C47.1959 496.822 42.7635 491.869 37.3533 487.873H38.8438H1445.81ZM38.8438 36.8682H1445.81V485.873H38.8438V36.8682Z"/>
</mask>
<path d="M3.5026e-05 48.1126H20V28.1126H3.5026e-05V48.1126ZM0 48.1126H-20V68.1126H0V48.1126ZM0 32.1104L-1.42029 12.1609L-20 13.4836L-20 32.1104H0ZM33.7732 0.429295V-19.5707H13.7732V0.429295H33.7732ZM36.8442 0.429295V20.4293H56.8442V0.429295H36.8442ZM36.8442 0.428711V-19.5713H16.8442V0.428711H36.8442ZM1447.16 0.428711H1467.16V-19.5713H1447.16V0.428711ZM1447.16 0.42878H1427.16V20.4288H1447.16V0.42878ZM1447.28 0.42878L1467.19 -1.47529L1465.46 -19.5712H1447.28V0.42878ZM1484 29.5689L1484 49.5689L1504 49.5689L1504 29.5696L1484 29.5689ZM1484 19.4287L1504 19.4287L1464 19.428L1484 19.4287ZM1484 473.429L1464 473.429L1464 493.457L1484.03 493.429L1484 473.429ZM1484.17 473.428H1504.17V453.4L1484.14 453.428L1484.17 473.428ZM1484.17 489.432L1485.59 509.381L1504.17 508.059V489.432H1484.17ZM1450.4 521.113V541.113H1470.4V521.113H1450.4ZM1447.16 521.113V501.113H1427.16V521.113H1447.16ZM1447.16 521.428L1447.16 541.428L1467.16 541.428V521.428H1447.16ZM55.2652 521.428L55.2652 501.428L35.2652 501.428V521.428H55.2652ZM55.2652 521.429V541.429H75.2652V521.429H55.2652ZM36.718 521.429L16.8087 523.332L18.5387 541.429H36.718V521.429ZM0.000250422 492.288H-19.9997V512.287L9.24188e-05 512.288L0.000250422 492.288ZM0.000250422 487.872H20.0003V467.872H0.000250422V487.872ZM3.5026e-05 487.872H-20V507.872H3.5026e-05V487.872ZM47.9435 19.4287V-0.571289H34.8161L29.5941 11.4727L47.9435 19.4287ZM1433.7 19.4287L1451.2 9.74541L1445.49 -0.571289H1433.7V19.4287ZM1465 42.6789H1485V27.2485L1470.07 23.3334L1465 42.6789ZM1465 476.632L1471.59 495.515L1485 490.836V476.632H1465ZM1447.81 486.515H1427.81V530.469L1460.95 501.594L1447.81 486.515ZM1447.81 34.8682H1467.81V14.8682H1447.81V34.8682ZM36.8438 34.8682V14.8682H16.8438V34.8682H36.8438ZM36.8438 487.501L25.1636 503.736L56.8438 526.528V487.501H36.8438ZM19 479.178H-0.999966V494.608L13.9251 498.523L19 479.178ZM19 44.9688L12.4733 26.0638L-0.999966 30.7152V44.9688H19ZM1446.32 487.873L1460.08 502.387L1496.48 467.873H1446.32V487.873ZM1436.09 502.428V522.428H1449.34L1454.51 510.227L1436.09 502.428ZM50.2981 502.428L32.7985 512.111L38.5073 522.428H50.2981V502.428ZM37.3533 487.873V467.873H-23.3874L25.4709 503.96L37.3533 487.873ZM1445.81 36.8682H1465.81V16.8682H1445.81V36.8682ZM38.8438 36.8682V16.8682H18.8438V36.8682H38.8438ZM1445.81 485.873V505.873H1465.81V485.873H1445.81ZM38.8438 485.873H18.8438V505.873H38.8438V485.873ZM3.5026e-05 28.1126C3.50032e-05 28.1126 3.49804e-05 28.1126 3.49576e-05 28.1126C3.49348e-05 28.1126 3.4912e-05 28.1126 3.48892e-05 28.1126C3.48664e-05 28.1126 3.48436e-05 28.1126 3.48208e-05 28.1126C3.4798e-05 28.1126 3.47752e-05 28.1126 3.47524e-05 28.1126C3.47296e-05 28.1126 3.47068e-05 28.1126 3.4684e-05 28.1126C3.46612e-05 28.1126 3.46384e-05 28.1126 3.46156e-05 28.1126C3.45928e-05 28.1126 3.457e-05 28.1126 3.45472e-05 28.1126C3.45243e-05 28.1126 3.45015e-05 28.1126 3.44787e-05 28.1126C3.44559e-05 28.1126 3.44331e-05 28.1126 3.44103e-05 28.1126C3.43875e-05 28.1126 3.43647e-05 28.1126 3.43419e-05 28.1126C3.43191e-05 28.1126 3.42963e-05 28.1126 3.42735e-05 28.1126C3.42507e-05 28.1126 3.42279e-05 28.1126 3.42051e-05 28.1126C3.41823e-05 28.1126 3.41595e-05 28.1126 3.41367e-05 28.1126C3.41139e-05 28.1126 3.40911e-05 28.1126 3.40683e-05 28.1126C3.40455e-05 28.1126 3.40227e-05 28.1126 3.39999e-05 28.1126C3.39771e-05 28.1126 3.39543e-05 28.1126 3.39315e-05 28.1126C3.39087e-05 28.1126 3.38859e-05 28.1126 3.38631e-05 28.1126C3.38402e-05 28.1126 3.38174e-05 28.1126 3.37946e-05 28.1126C3.37718e-05 28.1126 3.3749e-05 28.1126 3.37262e-05 28.1126C3.37034e-05 28.1126 3.36806e-05 28.1126 3.36578e-05 28.1126C3.3635e-05 28.1126 3.36122e-05 28.1126 3.35894e-05 28.1126C3.35666e-05 28.1126 3.35438e-05 28.1126 3.3521e-05 28.1126C3.34982e-05 28.1126 3.34754e-05 28.1126 3.34526e-05 28.1126C3.34298e-05 28.1126 3.3407e-05 28.1126 3.33842e-05 28.1126C3.33614e-05 28.1126 3.33386e-05 28.1126 3.33158e-05 28.1126C3.3293e-05 28.1126 3.32702e-05 28.1126 3.32474e-05 28.1126C3.32246e-05 28.1126 3.32018e-05 28.1126 3.31789e-05 28.1126C3.31561e-05 28.1126 3.31333e-05 28.1126 3.31105e-05 28.1126C3.30877e-05 28.1126 3.30649e-05 28.1126 3.30421e-05 28.1126C3.30193e-05 28.1126 3.29965e-05 28.1126 3.29737e-05 28.1126C3.29509e-05 28.1126 3.29281e-05 28.1126 3.29053e-05 28.1126C3.28825e-05 28.1126 3.28597e-05 28.1126 3.28369e-05 28.1126C3.28141e-05 28.1126 3.27913e-05 28.1126 3.27685e-05 28.1126C3.27457e-05 28.1126 3.27229e-05 28.1126 3.27001e-05 28.1126C3.26773e-05 28.1126 3.26545e-05 28.1126 3.26317e-05 28.1126C3.26089e-05 28.1126 3.25861e-05 28.1126 3.25633e-05 28.1126C3.25405e-05 28.1126 3.25176e-05 28.1126 3.24948e-05 28.1126C3.2472e-05 28.1126 3.24492e-05 28.1126 3.24264e-05 28.1126C3.24036e-05 28.1126 3.23808e-05 28.1126 3.2358e-05 28.1126C3.23352e-05 28.1126 3.23124e-05 28.1126 3.22896e-05 28.1126C3.22668e-05 28.1126 3.2244e-05 28.1126 3.22212e-05 28.1126C3.21984e-05 28.1126 3.21756e-05 28.1126 3.21528e-05 28.1126C3.213e-05 28.1126 3.21072e-05 28.1126 3.20844e-05 28.1126C3.20616e-05 28.1126 3.20388e-05 28.1126 3.2016e-05 28.1126C3.19932e-05 28.1126 3.19704e-05 28.1126 3.19476e-05 28.1126C3.19248e-05 28.1126 3.1902e-05 28.1126 3.18792e-05 28.1126C3.18564e-05 28.1126 3.18335e-05 28.1126 3.18107e-05 28.1126C3.17879e-05 28.1126 3.17651e-05 28.1126 3.17423e-05 28.1126C3.17195e-05 28.1126 3.16967e-05 28.1126 3.16739e-05 28.1126C3.16511e-05 28.1126 3.16283e-05 28.1126 3.16055e-05 28.1126C3.15827e-05 28.1126 3.15599e-05 28.1126 3.15371e-05 28.1126C3.15143e-05 28.1126 3.14915e-05 28.1126 3.14687e-05 28.1126C3.14459e-05 28.1126 3.14231e-05 28.1126 3.14003e-05 28.1126C3.13775e-05 28.1126 3.13547e-05 28.1126 3.13319e-05 28.1126C3.13091e-05 28.1126 3.12863e-05 28.1126 3.12635e-05 28.1126C3.12407e-05 28.1126 3.12179e-05 28.1126 3.11951e-05 28.1126C3.11722e-05 28.1126 3.11494e-05 28.1126 3.11266e-05 28.1126C3.11038e-05 28.1126 3.1081e-05 28.1126 3.10582e-05 28.1126C3.10354e-05 28.1126 3.10126e-05 28.1126 3.09898e-05 28.1126C3.0967e-05 28.1126 3.09442e-05 28.1126 3.09214e-05 28.1126C3.08986e-05 28.1126 3.08758e-05 28.1126 3.0853e-05 28.1126C3.08302e-05 28.1126 3.08074e-05 28.1126 3.07846e-05 28.1126C3.07618e-05 28.1126 3.0739e-05 28.1126 3.07162e-05 28.1126C3.06934e-05 28.1126 3.06706e-05 28.1126 3.06478e-05 28.1126C3.0625e-05 28.1126 3.06022e-05 28.1126 3.05794e-05 28.1126C3.05566e-05 28.1126 3.05338e-05 28.1126 3.0511e-05 28.1126C3.04881e-05 28.1126 3.04653e-05 28.1126 3.04425e-05 28.1126C3.04197e-05 28.1126 3.03969e-05 28.1126 3.03741e-05 28.1126C3.03513e-05 28.1126 3.03285e-05 28.1126 3.03057e-05 28.1126C3.02829e-05 28.1126 3.02601e-05 28.1126 3.02373e-05 28.1126C3.02145e-05 28.1126 3.01917e-05 28.1126 3.01689e-05 28.1126C3.01461e-05 28.1126 3.01233e-05 28.1126 3.01005e-05 28.1126C3.00777e-05 28.1126 3.00549e-05 28.1126 3.00321e-05 28.1126C3.00093e-05 28.1126 2.99865e-05 28.1126 2.99637e-05 28.1126C2.99409e-05 28.1126 2.99181e-05 28.1126 2.98953e-05 28.1126C2.98725e-05 28.1126 2.98497e-05 28.1126 2.98268e-05 28.1126C2.9804e-05 28.1126 2.97812e-05 28.1126 2.97584e-05 28.1126C2.97356e-05 28.1126 2.97128e-05 28.1126 2.969e-05 28.1126C2.96672e-05 28.1126 2.96444e-05 28.1126 2.96216e-05 28.1126C2.95988e-05 28.1126 2.9576e-05 28.1126 2.95532e-05 28.1126C2.95304e-05 28.1126 2.95076e-05 28.1126 2.94848e-05 28.1126C2.9462e-05 28.1126 2.94392e-05 28.1126 2.94164e-05 28.1126C2.93936e-05 28.1126 2.93708e-05 28.1126 2.9348e-05 28.1126C2.93252e-05 28.1126 2.93024e-05 28.1126 2.92796e-05 28.1126C2.92568e-05 28.1126 2.9234e-05 28.1126 2.92112e-05 28.1126C2.91884e-05 28.1126 2.91655e-05 28.1126 2.91427e-05 28.1126C2.91199e-05 28.1126 2.90971e-05 28.1126 2.90743e-05 28.1126C2.90515e-05 28.1126 2.90287e-05 28.1126 2.90059e-05 28.1126C2.89831e-05 28.1126 2.89603e-05 28.1126 2.89375e-05 28.1126C2.89147e-05 28.1126 2.88919e-05 28.1126 2.88691e-05 28.1126C2.88463e-05 28.1126 2.88235e-05 28.1126 2.88007e-05 28.1126C2.87779e-05 28.1126 2.87551e-05 28.1126 2.87323e-05 28.1126C2.87095e-05 28.1126 2.86867e-05 28.1126 2.86639e-05 28.1126C2.86411e-05 28.1126 2.86183e-05 28.1126 2.85955e-05 28.1126C2.85727e-05 28.1126 2.85499e-05 28.1126 2.85271e-05 28.1126C2.85043e-05 28.1126 2.84814e-05 28.1126 2.84586e-05 28.1126C2.84358e-05 28.1126 2.8413e-05 28.1126 2.83902e-05 28.1126C2.83674e-05 28.1126 2.83446e-05 28.1126 2.83218e-05 28.1126C2.8299e-05 28.1126 2.82762e-05 28.1126 2.82534e-05 28.1126C2.82306e-05 28.1126 2.82078e-05 28.1126 2.8185e-05 28.1126C2.81622e-05 28.1126 2.81394e-05 28.1126 2.81166e-05 28.1126C2.80938e-05 28.1126 2.8071e-05 28.1126 2.80482e-05 28.1126C2.80254e-05 28.1126 2.80026e-05 28.1126 2.79798e-05 28.1126C2.7957e-05 28.1126 2.79342e-05 28.1126 2.79114e-05 28.1126C2.78886e-05 28.1126 2.78658e-05 28.1126 2.7843e-05 28.1126C2.78201e-05 28.1126 2.77973e-05 28.1126 2.77745e-05 28.1126C2.77517e-05 28.1126 2.77289e-05 28.1126 2.77061e-05 28.1126C2.76833e-05 28.1126 2.76605e-05 28.1126 2.76377e-05 28.1126C2.76149e-05 28.1126 2.75921e-05 28.1126 2.75693e-05 28.1126C2.75465e-05 28.1126 2.75237e-05 28.1126 2.75009e-05 28.1126C2.74781e-05 28.1126 2.74553e-05 28.1126 2.74325e-05 28.1126C2.74097e-05 28.1126 2.73869e-05 28.1126 2.73641e-05 28.1126C2.73413e-05 28.1126 2.73185e-05 28.1126 2.72957e-05 28.1126C2.72729e-05 28.1126 2.72501e-05 28.1126 2.72273e-05 28.1126C2.72045e-05 28.1126 2.71817e-05 28.1126 2.71589e-05 28.1126C2.7136e-05 28.1126 2.71132e-05 28.1126 2.70904e-05 28.1126C2.70676e-05 28.1126 2.70448e-05 28.1126 2.7022e-05 28.1126C2.69992e-05 28.1126 2.69764e-05 28.1126 2.69536e-05 28.1126C2.69308e-05 28.1126 2.6908e-05 28.1126 2.68852e-05 28.1126C2.68624e-05 28.1126 2.68396e-05 28.1126 2.68168e-05 28.1126C2.6794e-05 28.1126 2.67712e-05 28.1126 2.67484e-05 28.1126C2.67256e-05 28.1126 2.67028e-05 28.1126 2.668e-05 28.1126C2.66572e-05 28.1126 2.66344e-05 28.1126 2.66116e-05 28.1126C2.65888e-05 28.1126 2.6566e-05 28.1126 2.65432e-05 28.1126C2.65204e-05 28.1126 2.64976e-05 28.1126 2.64747e-05 28.1126C2.64519e-05 28.1126 2.64291e-05 28.1126 2.64063e-05 28.1126C2.63835e-05 28.1126 2.63607e-05 28.1126 2.63379e-05 28.1126C2.63151e-05 28.1126 2.62923e-05 28.1126 2.62695e-05 28.1126C2.62467e-05 28.1126 2.62239e-05 28.1126 2.62011e-05 28.1126C2.61783e-05 28.1126 2.61555e-05 28.1126 2.61327e-05 28.1126C2.61099e-05 28.1126 2.60871e-05 28.1126 2.60643e-05 28.1126C2.60415e-05 28.1126 2.60187e-05 28.1126 2.59959e-05 28.1126C2.59731e-05 28.1126 2.59503e-05 28.1126 2.59275e-05 28.1126C2.59047e-05 28.1126 2.58819e-05 28.1126 2.58591e-05 28.1126C2.58363e-05 28.1126 2.58135e-05 28.1126 2.57906e-05 28.1126C2.57678e-05 28.1126 2.5745e-05 28.1126 2.57222e-05 28.1126C2.56994e-05 28.1126 2.56766e-05 28.1126 2.56538e-05 28.1126C2.5631e-05 28.1126 2.56082e-05 28.1126 2.55854e-05 28.1126C2.55626e-05 28.1126 2.55398e-05 28.1126 2.5517e-05 28.1126C2.54942e-05 28.1126 2.54714e-05 28.1126 2.54486e-05 28.1126C2.54258e-05 28.1126 2.5403e-05 28.1126 2.53802e-05 28.1126C2.53574e-05 28.1126 2.53346e-05 28.1126 2.53118e-05 28.1126C2.5289e-05 28.1126 2.52662e-05 28.1126 2.52434e-05 28.1126C2.52206e-05 28.1126 2.51978e-05 28.1126 2.5175e-05 28.1126C2.51522e-05 28.1126 2.51293e-05 28.1126 2.51065e-05 28.1126C2.50837e-05 28.1126 2.50609e-05 28.1126 2.50381e-05 28.1126C2.50153e-05 28.1126 2.49925e-05 28.1126 2.49697e-05 28.1126C2.49469e-05 28.1126 2.49241e-05 28.1126 2.49013e-05 28.1126C2.48785e-05 28.1126 2.48557e-05 28.1126 2.48329e-05 28.1126C2.48101e-05 28.1126 2.47873e-05 28.1126 2.47645e-05 28.1126C2.47417e-05 28.1126 2.47189e-05 28.1126 2.46961e-05 28.1126C2.46733e-05 28.1126 2.46505e-05 28.1126 2.46277e-05 28.1126C2.46049e-05 28.1126 2.45821e-05 28.1126 2.45593e-05 28.1126C2.45365e-05 28.1126 2.45137e-05 28.1126 2.44909e-05 28.1126C2.4468e-05 28.1126 2.44452e-05 28.1126 2.44224e-05 28.1126C2.43996e-05 28.1126 2.43768e-05 28.1126 2.4354e-05 28.1126C2.43312e-05 28.1126 2.43084e-05 28.1126 2.42856e-05 28.1126C2.42628e-05 28.1126 2.424e-05 28.1126 2.42172e-05 28.1126C2.41944e-05 28.1126 2.41716e-05 28.1126 2.41488e-05 28.1126C2.4126e-05 28.1126 2.41032e-05 28.1126 2.40804e-05 28.1126C2.40576e-05 28.1126 2.40348e-05 28.1126 2.4012e-05 28.1126C2.39892e-05 28.1126 2.39664e-05 28.1126 2.39436e-05 28.1126C2.39208e-05 28.1126 2.3898e-05 28.1126 2.38752e-05 28.1126C2.38524e-05 28.1126 2.38296e-05 28.1126 2.38068e-05 28.1126C2.37839e-05 28.1126 2.37611e-05 28.1126 2.37383e-05 28.1126C2.37155e-05 28.1126 2.36927e-05 28.1126 2.36699e-05 28.1126C2.36471e-05 28.1126 2.36243e-05 28.1126 2.36015e-05 28.1126C2.35787e-05 28.1126 2.35559e-05 28.1126 2.35331e-05 28.1126C2.35103e-05 28.1126 2.34875e-05 28.1126 2.34647e-05 28.1126C2.34419e-05 28.1126 2.34191e-05 28.1126 2.33963e-05 28.1126C2.33735e-05 28.1126 2.33507e-05 28.1126 2.33279e-05 28.1126C2.33051e-05 28.1126 2.32823e-05 28.1126 2.32595e-05 28.1126C2.32367e-05 28.1126 2.32139e-05 28.1126 2.31911e-05 28.1126C2.31683e-05 28.1126 2.31455e-05 28.1126 2.31226e-05 28.1126C2.30998e-05 28.1126 2.3077e-05 28.1126 2.30542e-05 28.1126C2.30314e-05 28.1126 2.30086e-05 28.1126 2.29858e-05 28.1126C2.2963e-05 28.1126 2.29402e-05 28.1126 2.29174e-05 28.1126C2.28946e-05 28.1126 2.28718e-05 28.1126 2.2849e-05 28.1126C2.28262e-05 28.1126 2.28034e-05 28.1126 2.27806e-05 28.1126C2.27578e-05 28.1126 2.2735e-05 28.1126 2.27122e-05 28.1126C2.26894e-05 28.1126 2.26666e-05 28.1126 2.26438e-05 28.1126C2.2621e-05 28.1126 2.25982e-05 28.1126 2.25754e-05 28.1126C2.25526e-05 28.1126 2.25298e-05 28.1126 2.2507e-05 28.1126C2.24842e-05 28.1126 2.24614e-05 28.1126 2.24385e-05 28.1126C2.24157e-05 28.1126 2.23929e-05 28.1126 2.23701e-05 28.1126C2.23473e-05 28.1126 2.23245e-05 28.1126 2.23017e-05 28.1126C2.22789e-05 28.1126 2.22561e-05 28.1126 2.22333e-05 28.1126C2.22105e-05 28.1126 2.21877e-05 28.1126 2.21649e-05 28.1126C2.21421e-05 28.1126 2.21193e-05 28.1126 2.20965e-05 28.1126C2.20737e-05 28.1126 2.20509e-05 28.1126 2.20281e-05 28.1126C2.20053e-05 28.1126 2.19825e-05 28.1126 2.19597e-05 28.1126C2.19369e-05 28.1126 2.19141e-05 28.1126 2.18913e-05 28.1126C2.18685e-05 28.1126 2.18457e-05 28.1126 2.18229e-05 28.1126C2.18001e-05 28.1126 2.17772e-05 28.1126 2.17544e-05 28.1126C2.17316e-05 28.1126 2.17088e-05 28.1126 2.1686e-05 28.1126C2.16632e-05 28.1126 2.16404e-05 28.1126 2.16176e-05 28.1126C2.15948e-05 28.1126 2.1572e-05 28.1126 2.15492e-05 28.1126C2.15264e-05 28.1126 2.15036e-05 28.1126 2.14808e-05 28.1126C2.1458e-05 28.1126 2.14352e-05 28.1126 2.14124e-05 28.1126C2.13896e-05 28.1126 2.13668e-05 28.1126 2.1344e-05 28.1126C2.13212e-05 28.1126 2.12984e-05 28.1126 2.12756e-05 28.1126C2.12528e-05 28.1126 2.123e-05 28.1126 2.12072e-05 28.1126C2.11844e-05 28.1126 2.11616e-05 28.1126 2.11388e-05 28.1126C2.11159e-05 28.1126 2.10931e-05 28.1126 2.10703e-05 28.1126C2.10475e-05 28.1126 2.10247e-05 28.1126 2.10019e-05 28.1126C2.09791e-05 28.1126 2.09563e-05 28.1126 2.09335e-05 28.1126C2.09107e-05 28.1126 2.08879e-05 28.1126 2.08651e-05 28.1126C2.08423e-05 28.1126 2.08195e-05 28.1126 2.07967e-05 28.1126C2.07739e-05 28.1126 2.07511e-05 28.1126 2.07283e-05 28.1126C2.07055e-05 28.1126 2.06827e-05 28.1126 2.06599e-05 28.1126C2.06371e-05 28.1126 2.06143e-05 28.1126 2.05915e-05 28.1126C2.05687e-05 28.1126 2.05459e-05 28.1126 2.05231e-05 28.1126C2.05003e-05 28.1126 2.04775e-05 28.1126 2.04547e-05 28.1126C2.04318e-05 28.1126 2.0409e-05 28.1126 2.03862e-05 28.1126C2.03634e-05 28.1126 2.03406e-05 28.1126 2.03178e-05 28.1126C2.0295e-05 28.1126 2.02722e-05 28.1126 2.02494e-05 28.1126C2.02266e-05 28.1126 2.02038e-05 28.1126 2.0181e-05 28.1126C2.01582e-05 28.1126 2.01354e-05 28.1126 2.01126e-05 28.1126C2.00898e-05 28.1126 2.0067e-05 28.1126 2.00442e-05 28.1126C2.00214e-05 28.1126 1.99986e-05 28.1126 1.99758e-05 28.1126C1.9953e-05 28.1126 1.99302e-05 28.1126 1.99074e-05 28.1126C1.98846e-05 28.1126 1.98618e-05 28.1126 1.9839e-05 28.1126C1.98162e-05 28.1126 1.97934e-05 28.1126 1.97705e-05 28.1126C1.97477e-05 28.1126 1.97249e-05 28.1126 1.97021e-05 28.1126C1.96793e-05 28.1126 1.96565e-05 28.1126 1.96337e-05 28.1126C1.96109e-05 28.1126 1.95881e-05 28.1126 1.95653e-05 28.1126C1.95425e-05 28.1126 1.95197e-05 28.1126 1.94969e-05 28.1126C1.94741e-05 28.1126 1.94513e-05 28.1126 1.94285e-05 28.1126C1.94057e-05 28.1126 1.93829e-05 28.1126 1.93601e-05 28.1126C1.93373e-05 28.1126 1.93145e-05 28.1126 1.92917e-05 28.1126C1.92689e-05 28.1126 1.92461e-05 28.1126 1.92233e-05 28.1126C1.92005e-05 28.1126 1.91777e-05 28.1126 1.91549e-05 28.1126C1.91321e-05 28.1126 1.91093e-05 28.1126 1.90864e-05 28.1126C1.90636e-05 28.1126 1.90408e-05 28.1126 1.9018e-05 28.1126C1.89952e-05 28.1126 1.89724e-05 28.1126 1.89496e-05 28.1126C1.89268e-05 28.1126 1.8904e-05 28.1126 1.88812e-05 28.1126C1.88584e-05 28.1126 1.88356e-05 28.1126 1.88128e-05 28.1126C1.879e-05 28.1126 1.87672e-05 28.1126 1.87444e-05 28.1126C1.87216e-05 28.1126 1.86988e-05 28.1126 1.8676e-05 28.1126C1.86532e-05 28.1126 1.86304e-05 28.1126 1.86076e-05 28.1126C1.85848e-05 28.1126 1.8562e-05 28.1126 1.85392e-05 28.1126C1.85164e-05 28.1126 1.84936e-05 28.1126 1.84708e-05 28.1126C1.8448e-05 28.1126 1.84251e-05 28.1126 1.84023e-05 28.1126C1.83795e-05 28.1126 1.83567e-05 28.1126 1.83339e-05 28.1126C1.83111e-05 28.1126 1.82883e-05 28.1126 1.82655e-05 28.1126C1.82427e-05 28.1126 1.82199e-05 28.1126 1.81971e-05 28.1126C1.81743e-05 28.1126 1.81515e-05 28.1126 1.81287e-05 28.1126C1.81059e-05 28.1126 1.80831e-05 28.1126 1.80603e-05 28.1126C1.80375e-05 28.1126 1.80147e-05 28.1126 1.79919e-05 28.1126C1.79691e-05 28.1126 1.79463e-05 28.1126 1.79235e-05 28.1126C1.79007e-05 28.1126 1.78779e-05 28.1126 1.78551e-05 28.1126C1.78323e-05 28.1126 1.78095e-05 28.1126 1.77867e-05 28.1126C1.77638e-05 28.1126 1.7741e-05 28.1126 1.77182e-05 28.1126C1.76954e-05 28.1126 1.76726e-05 28.1126 1.76498e-05 28.1126C1.7627e-05 28.1126 1.76042e-05 28.1126 1.75814e-05 28.1126C1.75586e-05 28.1126 1.75358e-05 28.1126 1.7513e-05 28.1126C1.74902e-05 28.1126 1.74674e-05 28.1126 1.74446e-05 28.1126C1.74218e-05 28.1126 1.7399e-05 28.1126 1.73762e-05 28.1126C1.73534e-05 28.1126 1.73306e-05 28.1126 1.73078e-05 28.1126C1.7285e-05 28.1126 1.72622e-05 28.1126 1.72394e-05 28.1126C1.72166e-05 28.1126 1.71938e-05 28.1126 1.7171e-05 28.1126C1.71482e-05 28.1126 1.71254e-05 28.1126 1.71026e-05 28.1126C1.70797e-05 28.1126 1.70569e-05 28.1126 1.70341e-05 28.1126C1.70113e-05 28.1126 1.69885e-05 28.1126 1.69657e-05 28.1126C1.69429e-05 28.1126 1.69201e-05 28.1126 1.68973e-05 28.1126C1.68745e-05 28.1126 1.68517e-05 28.1126 1.68289e-05 28.1126C1.68061e-05 28.1126 1.67833e-05 28.1126 1.67605e-05 28.1126C1.67377e-05 28.1126 1.67149e-05 28.1126 1.66921e-05 28.1126C1.66693e-05 28.1126 1.66465e-05 28.1126 1.66237e-05 28.1126C1.66009e-05 28.1126 1.65781e-05 28.1126 1.65553e-05 28.1126C1.65325e-05 28.1126 1.65097e-05 28.1126 1.64869e-05 28.1126C1.64641e-05 28.1126 1.64413e-05 28.1126 1.64184e-05 28.1126C1.63956e-05 28.1126 1.63728e-05 28.1126 1.635e-05 28.1126C1.63272e-05 28.1126 1.63044e-05 28.1126 1.62816e-05 28.1126C1.62588e-05 28.1126 1.6236e-05 28.1126 1.62132e-05 28.1126C1.61904e-05 28.1126 1.61676e-05 28.1126 1.61448e-05 28.1126C1.6122e-05 28.1126 1.60992e-05 28.1126 1.60764e-05 28.1126C1.60536e-05 28.1126 1.60308e-05 28.1126 1.6008e-05 28.1126C1.59852e-05 28.1126 1.59624e-05 28.1126 1.59396e-05 28.1126C1.59168e-05 28.1126 1.5894e-05 28.1126 1.58712e-05 28.1126C1.58484e-05 28.1126 1.58256e-05 28.1126 1.58028e-05 28.1126C1.578e-05 28.1126 1.57572e-05 28.1126 1.57343e-05 28.1126C1.57115e-05 28.1126 1.56887e-05 28.1126 1.56659e-05 28.1126C1.56431e-05 28.1126 1.56203e-05 28.1126 1.55975e-05 28.1126C1.55747e-05 28.1126 1.55519e-05 28.1126 1.55291e-05 28.1126C1.55063e-05 28.1126 1.54835e-05 28.1126 1.54607e-05 28.1126C1.54379e-05 28.1126 1.54151e-05 28.1126 1.53923e-05 28.1126C1.53695e-05 28.1126 1.53467e-05 28.1126 1.53239e-05 28.1126C1.53011e-05 28.1126 1.52783e-05 28.1126 1.52555e-05 28.1126C1.52327e-05 28.1126 1.52099e-05 28.1126 1.51871e-05 28.1126C1.51643e-05 28.1126 1.51415e-05 28.1126 1.51187e-05 28.1126C1.50959e-05 28.1126 1.5073e-05 28.1126 1.50502e-05 28.1126C1.50274e-05 28.1126 1.50046e-05 28.1126 1.49818e-05 28.1126C1.4959e-05 28.1126 1.49362e-05 28.1126 1.49134e-05 28.1126C1.48906e-05 28.1126 1.48678e-05 28.1126 1.4845e-05 28.1126C1.48222e-05 28.1126 1.47994e-05 28.1126 1.47766e-05 28.1126C1.47538e-05 28.1126 1.4731e-05 28.1126 1.47082e-05 28.1126C1.46854e-05 28.1126 1.46626e-05 28.1126 1.46398e-05 28.1126C1.4617e-05 28.1126 1.45942e-05 28.1126 1.45714e-05 28.1126C1.45486e-05 28.1126 1.45258e-05 28.1126 1.4503e-05 28.1126C1.44802e-05 28.1126 1.44574e-05 28.1126 1.44346e-05 28.1126C1.44117e-05 28.1126 1.43889e-05 28.1126 1.43661e-05 28.1126C1.43433e-05 28.1126 1.43205e-05 28.1126 1.42977e-05 28.1126C1.42749e-05 28.1126 1.42521e-05 28.1126 1.42293e-05 28.1126C1.42065e-05 28.1126 1.41837e-05 28.1126 1.41609e-05 28.1126C1.41381e-05 28.1126 1.41153e-05 28.1126 1.40925e-05 28.1126C1.40697e-05 28.1126 1.40469e-05 28.1126 1.40241e-05 28.1126C1.40013e-05 28.1126 1.39785e-05 28.1126 1.39557e-05 28.1126C1.39329e-05 28.1126 1.39101e-05 28.1126 1.38873e-05 28.1126C1.38645e-05 28.1126 1.38417e-05 28.1126 1.38189e-05 28.1126C1.37961e-05 28.1126 1.37733e-05 28.1126 1.37505e-05 28.1126C1.37276e-05 28.1126 1.37048e-05 28.1126 1.3682e-05 28.1126C1.36592e-05 28.1126 1.36364e-05 28.1126 1.36136e-05 28.1126C1.35908e-05 28.1126 1.3568e-05 28.1126 1.35452e-05 28.1126C1.35224e-05 28.1126 1.34996e-05 28.1126 1.34768e-05 28.1126C1.3454e-05 28.1126 1.34312e-05 28.1126 1.34084e-05 28.1126C1.33856e-05 28.1126 1.33628e-05 28.1126 1.334e-05 28.1126C1.33172e-05 28.1126 1.32944e-05 28.1126 1.32716e-05 28.1126C1.32488e-05 28.1126 1.3226e-05 28.1126 1.32032e-05 28.1126C1.31804e-05 28.1126 1.31576e-05 28.1126 1.31348e-05 28.1126C1.3112e-05 28.1126 1.30892e-05 28.1126 1.30663e-05 28.1126C1.30435e-05 28.1126 1.30207e-05 28.1126 1.29979e-05 28.1126C1.29751e-05 28.1126 1.29523e-05 28.1126 1.29295e-05 28.1126C1.29067e-05 28.1126 1.28839e-05 28.1126 1.28611e-05 28.1126C1.28383e-05 28.1126 1.28155e-05 28.1126 1.27927e-05 28.1126C1.27699e-05 28.1126 1.27471e-05 28.1126 1.27243e-05 28.1126C1.27015e-05 28.1126 1.26787e-05 28.1126 1.26559e-05 28.1126C1.26331e-05 28.1126 1.26103e-05 28.1126 1.25875e-05 28.1126C1.25647e-05 28.1126 1.25419e-05 28.1126 1.25191e-05 28.1126C1.24963e-05 28.1126 1.24735e-05 28.1126 1.24507e-05 28.1126C1.24279e-05 28.1126 1.24051e-05 28.1126 1.23822e-05 28.1126C1.23594e-05 28.1126 1.23366e-05 28.1126 1.23138e-05 28.1126C1.2291e-05 28.1126 1.22682e-05 28.1126 1.22454e-05 28.1126C1.22226e-05 28.1126 1.21998e-05 28.1126 1.2177e-05 28.1126C1.21542e-05 28.1126 1.21314e-05 28.1126 1.21086e-05 28.1126C1.20858e-05 28.1126 1.2063e-05 28.1126 1.20402e-05 28.1126C1.20174e-05 28.1126 1.19946e-05 28.1126 1.19718e-05 28.1126C1.1949e-05 28.1126 1.19262e-05 28.1126 1.19034e-05 28.1126C1.18806e-05 28.1126 1.18578e-05 28.1126 1.1835e-05 28.1126C1.18122e-05 28.1126 1.17894e-05 28.1126 1.17666e-05 28.1126C1.17438e-05 28.1126 1.17209e-05 28.1126 1.16981e-05 28.1126C1.16753e-05 28.1126 1.16525e-05 28.1126 1.16297e-05 28.1126C1.16069e-05 28.1126 1.15841e-05 28.1126 1.15613e-05 28.1126C1.15385e-05 28.1126 1.15157e-05 28.1126 1.14929e-05 28.1126C1.14701e-05 28.1126 1.14473e-05 28.1126 1.14245e-05 28.1126C1.14017e-05 28.1126 1.13789e-05 28.1126 1.13561e-05 28.1126C1.13333e-05 28.1126 1.13105e-05 28.1126 1.12877e-05 28.1126C1.12649e-05 28.1126 1.12421e-05 28.1126 1.12193e-05 28.1126C1.11965e-05 28.1126 1.11737e-05 28.1126 1.11509e-05 28.1126C1.11281e-05 28.1126 1.11053e-05 28.1126 1.10825e-05 28.1126C1.10596e-05 28.1126 1.10368e-05 28.1126 1.1014e-05 28.1126C1.09912e-05 28.1126 1.09684e-05 28.1126 1.09456e-05 28.1126C1.09228e-05 28.1126 1.09e-05 28.1126 1.08772e-05 28.1126C1.08544e-05 28.1126 1.08316e-05 28.1126 1.08088e-05 28.1126C1.0786e-05 28.1126 1.07632e-05 28.1126 1.07404e-05 28.1126C1.07176e-05 28.1126 1.06948e-05 28.1126 1.0672e-05 28.1126C1.06492e-05 28.1126 1.06264e-05 28.1126 1.06036e-05 28.1126C1.05808e-05 28.1126 1.0558e-05 28.1126 1.05352e-05 28.1126C1.05124e-05 28.1126 1.04896e-05 28.1126 1.04668e-05 28.1126C1.0444e-05 28.1126 1.04212e-05 28.1126 1.03984e-05 28.1126C1.03755e-05 28.1126 1.03527e-05 28.1126 1.03299e-05 28.1126C1.03071e-05 28.1126 1.02843e-05 28.1126 1.02615e-05 28.1126C1.02387e-05 28.1126 1.02159e-05 28.1126 1.01931e-05 28.1126C1.01703e-05 28.1126 1.01475e-05 28.1126 1.01247e-05 28.1126C1.01019e-05 28.1126 1.00791e-05 28.1126 1.00563e-05 28.1126C1.00335e-05 28.1126 1.00107e-05 28.1126 9.98789e-06 28.1126C9.96509e-06 28.1126 9.94228e-06 28.1126 9.91948e-06 28.1126C9.89668e-06 28.1126 9.87387e-06 28.1126 9.85107e-06 28.1126C9.82827e-06 28.1126 9.80546e-06 28.1126 9.78266e-06 28.1126C9.75986e-06 28.1126 9.73705e-06 28.1126 9.71425e-06 28.1126C9.69145e-06 28.1126 9.66864e-06 28.1126 9.64584e-06 28.1126C9.62304e-06 28.1126 9.60023e-06 28.1126 9.57743e-06 28.1126C9.55463e-06 28.1126 9.53182e-06 28.1126 9.50902e-06 28.1126C9.48622e-06 28.1126 9.46341e-06 28.1126 9.44061e-06 28.1126C9.4178e-06 28.1126 9.395e-06 28.1126 9.3722e-06 28.1126C9.34939e-06 28.1126 9.32659e-06 28.1126 9.30379e-06 28.1126C9.28098e-06 28.1126 9.25818e-06 28.1126 9.23538e-06 28.1126C9.21257e-06 28.1126 9.18977e-06 28.1126 9.16697e-06 28.1126C9.14416e-06 28.1126 9.12136e-06 28.1126 9.09856e-06 28.1126C9.07575e-06 28.1126 9.05295e-06 28.1126 9.03015e-06 28.1126C9.00734e-06 28.1126 8.98454e-06 28.1126 8.96174e-06 28.1126C8.93893e-06 28.1126 8.91613e-06 28.1126 8.89333e-06 28.1126C8.87052e-06 28.1126 8.84772e-06 28.1126 8.82492e-06 28.1126C8.80211e-06 28.1126 8.77931e-06 28.1126 8.75651e-06 28.1126C8.7337e-06 28.1126 8.7109e-06 28.1126 8.6881e-06 28.1126C8.66529e-06 28.1126 8.64249e-06 28.1126 8.61969e-06 28.1126C8.59688e-06 28.1126 8.57408e-06 28.1126 8.55128e-06 28.1126C8.52847e-06 28.1126 8.50567e-06 28.1126 8.48287e-06 28.1126C8.46006e-06 28.1126 8.43726e-06 28.1126 8.41446e-06 28.1126C8.39165e-06 28.1126 8.36885e-06 28.1126 8.34605e-06 28.1126C8.32324e-06 28.1126 8.30044e-06 28.1126 8.27763e-06 28.1126C8.25483e-06 28.1126 8.23203e-06 28.1126 8.20922e-06 28.1126C8.18642e-06 28.1126 8.16362e-06 28.1126 8.14081e-06 28.1126C8.11801e-06 28.1126 8.09521e-06 28.1126 8.0724e-06 28.1126C8.0496e-06 28.1126 8.0268e-06 28.1126 8.00399e-06 28.1126C7.98119e-06 28.1126 7.95839e-06 28.1126 7.93558e-06 28.1126C7.91278e-06 28.1126 7.88998e-06 28.1126 7.86717e-06 28.1126C7.84437e-06 28.1126 7.82157e-06 28.1126 7.79876e-06 28.1126C7.77596e-06 28.1126 7.75316e-06 28.1126 7.73035e-06 28.1126C7.70755e-06 28.1126 7.68475e-06 28.1126 7.66194e-06 28.1126C7.63914e-06 28.1126 7.61634e-06 28.1126 7.59353e-06 28.1126C7.57073e-06 28.1126 7.54793e-06 28.1126 7.52512e-06 28.1126C7.50232e-06 28.1126 7.47952e-06 28.1126 7.45671e-06 28.1126C7.43391e-06 28.1126 7.41111e-06 28.1126 7.3883e-06 28.1126C7.3655e-06 28.1126 7.3427e-06 28.1126 7.31989e-06 28.1126C7.29709e-06 28.1126 7.27429e-06 28.1126 7.25148e-06 28.1126C7.22868e-06 28.1126 7.20587e-06 28.1126 7.18307e-06 28.1126C7.16027e-06 28.1126 7.13746e-06 28.1126 7.11466e-06 28.1126C7.09186e-06 28.1126 7.06905e-06 28.1126 7.04625e-06 28.1126C7.02345e-06 28.1126 7.00064e-06 28.1126 6.97784e-06 28.1126C6.95504e-06 28.1126 6.93223e-06 28.1126 6.90943e-06 28.1126C6.88663e-06 28.1126 6.86382e-06 28.1126 6.84102e-06 28.1126C6.81822e-06 28.1126 6.79541e-06 28.1126 6.77261e-06 28.1126C6.74981e-06 28.1126 6.727e-06 28.1126 6.7042e-06 28.1126C6.6814e-06 28.1126 6.65859e-06 28.1126 6.63579e-06 28.1126C6.61299e-06 28.1126 6.59018e-06 28.1126 6.56738e-06 28.1126C6.54458e-06 28.1126 6.52177e-06 28.1126 6.49897e-06 28.1126C6.47617e-06 28.1126 6.45336e-06 28.1126 6.43056e-06 28.1126C6.40776e-06 28.1126 6.38495e-06 28.1126 6.36215e-06 28.1126C6.33935e-06 28.1126 6.31654e-06 28.1126 6.29374e-06 28.1126C6.27094e-06 28.1126 6.24813e-06 28.1126 6.22533e-06 28.1126C6.20253e-06 28.1126 6.17972e-06 28.1126 6.15692e-06 28.1126C6.13412e-06 28.1126 6.11131e-06 28.1126 6.08851e-06 28.1126C6.0657e-06 28.1126 6.0429e-06 28.1126 6.0201e-06 28.1126C5.99729e-06 28.1126 5.97449e-06 28.1126 5.95169e-06 28.1126C5.92888e-06 28.1126 5.90608e-06 28.1126 5.88328e-06 28.1126C5.86047e-06 28.1126 5.83767e-06 28.1126 5.81487e-06 28.1126C5.79206e-06 28.1126 5.76926e-06 28.1126 5.74646e-06 28.1126C5.72365e-06 28.1126 5.70085e-06 28.1126 5.67805e-06 28.1126C5.65524e-06 28.1126 5.63244e-06 28.1126 5.60964e-06 28.1126C5.58683e-06 28.1126 5.56403e-06 28.1126 5.54123e-06 28.1126C5.51842e-06 28.1126 5.49562e-06 28.1126 5.47282e-06 28.1126C5.45001e-06 28.1126 5.42721e-06 28.1126 5.40441e-06 28.1126C5.3816e-06 28.1126 5.3588e-06 28.1126 5.336e-06 28.1126C5.31319e-06 28.1126 5.29039e-06 28.1126 5.26759e-06 28.1126C5.24478e-06 28.1126 5.22198e-06 28.1126 5.19918e-06 28.1126C5.17637e-06 28.1126 5.15357e-06 28.1126 5.13077e-06 28.1126C5.10796e-06 28.1126 5.08516e-06 28.1126 5.06236e-06 28.1126C5.03955e-06 28.1126 5.01675e-06 28.1126 4.99394e-06 28.1126C4.97114e-06 28.1126 4.94834e-06 28.1126 4.92553e-06 28.1126C4.90273e-06 28.1126 4.87993e-06 28.1126 4.85712e-06 28.1126C4.83432e-06 28.1126 4.81152e-06 28.1126 4.78871e-06 28.1126C4.76591e-06 28.1126 4.74311e-06 28.1126 4.7203e-06 28.1126C4.6975e-06 28.1126 4.6747e-06 28.1126 4.65189e-06 28.1126C4.62909e-06 28.1126 4.60629e-06 28.1126 4.58348e-06 28.1126C4.56068e-06 28.1126 4.53788e-06 28.1126 4.51507e-06 28.1126C4.49227e-06 28.1126 4.46947e-06 28.1126 4.44666e-06 28.1126C4.42386e-06 28.1126 4.40106e-06 28.1126 4.37825e-06 28.1126C4.35545e-06 28.1126 4.33265e-06 28.1126 4.30984e-06 28.1126C4.28704e-06 28.1126 4.26424e-06 28.1126 4.24143e-06 28.1126C4.21863e-06 28.1126 4.19583e-06 28.1126 4.17302e-06 28.1126C4.15022e-06 28.1126 4.12742e-06 28.1126 4.10461e-06 28.1126C4.08181e-06 28.1126 4.05901e-06 28.1126 4.0362e-06 28.1126C4.0134e-06 28.1126 3.9906e-06 28.1126 3.96779e-06 28.1126C3.94499e-06 28.1126 3.92219e-06 28.1126 3.89938e-06 28.1126C3.87658e-06 28.1126 3.85377e-06 28.1126 3.83097e-06 28.1126C3.80817e-06 28.1126 3.78536e-06 28.1126 3.76256e-06 28.1126C3.73976e-06 28.1126 3.71695e-06 28.1126 3.69415e-06 28.1126C3.67135e-06 28.1126 3.64854e-06 28.1126 3.62574e-06 28.1126C3.60294e-06 28.1126 3.58013e-06 28.1126 3.55733e-06 28.1126C3.53453e-06 28.1126 3.51172e-06 28.1126 3.48892e-06 28.1126C3.46612e-06 28.1126 3.44331e-06 28.1126 3.42051e-06 28.1126C3.39771e-06 28.1126 3.3749e-06 28.1126 3.3521e-06 28.1126C3.3293e-06 28.1126 3.30649e-06 28.1126 3.28369e-06 28.1126C3.26089e-06 28.1126 3.23808e-06 28.1126 3.21528e-06 28.1126C3.19248e-06 28.1126 3.16967e-06 28.1126 3.14687e-06 28.1126C3.12407e-06 28.1126 3.10126e-06 28.1126 3.07846e-06 28.1126C3.05566e-06 28.1126 3.03285e-06 28.1126 3.01005e-06 28.1126C2.98725e-06 28.1126 2.96444e-06 28.1126 2.94164e-06 28.1126C2.91884e-06 28.1126 2.89603e-06 28.1126 2.87323e-06 28.1126C2.85043e-06 28.1126 2.82762e-06 28.1126 2.80482e-06 28.1126C2.78202e-06 28.1126 2.75921e-06 28.1126 2.73641e-06 28.1126C2.7136e-06 28.1126 2.6908e-06 28.1126 2.668e-06 28.1126C2.64519e-06 28.1126 2.62239e-06 28.1126 2.59959e-06 28.1126C2.57678e-06 28.1126 2.55398e-06 28.1126 2.53118e-06 28.1126C2.50837e-06 28.1126 2.48557e-06 28.1126 2.46277e-06 28.1126C2.43996e-06 28.1126 2.41716e-06 28.1126 2.39436e-06 28.1126C2.37155e-06 28.1126 2.34875e-06 28.1126 2.32595e-06 28.1126C2.30314e-06 28.1126 2.28034e-06 28.1126 2.25754e-06 28.1126C2.23473e-06 28.1126 2.21193e-06 28.1126 2.18913e-06 28.1126C2.16632e-06 28.1126 2.14352e-06 28.1126 2.12072e-06 28.1126C2.09791e-06 28.1126 2.07511e-06 28.1126 2.05231e-06 28.1126C2.0295e-06 28.1126 2.0067e-06 28.1126 1.9839e-06 28.1126C1.96109e-06 28.1126 1.93829e-06 28.1126 1.91549e-06 28.1126C1.89268e-06 28.1126 1.86988e-06 28.1126 1.84708e-06 28.1126C1.82427e-06 28.1126 1.80147e-06 28.1126 1.77867e-06 28.1126C1.75586e-06 28.1126 1.73306e-06 28.1126 1.71026e-06 28.1126C1.68745e-06 28.1126 1.66465e-06 28.1126 1.64184e-06 28.1126C1.61904e-06 28.1126 1.59624e-06 28.1126 1.57343e-06 28.1126C1.55063e-06 28.1126 1.52783e-06 28.1126 1.50502e-06 28.1126C1.48222e-06 28.1126 1.45942e-06 28.1126 1.43661e-06 28.1126C1.41381e-06 28.1126 1.39101e-06 28.1126 1.3682e-06 28.1126C1.3454e-06 28.1126 1.3226e-06 28.1126 1.29979e-06 28.1126C1.27699e-06 28.1126 1.25419e-06 28.1126 1.23138e-06 28.1126C1.20858e-06 28.1126 1.18578e-06 28.1126 1.16297e-06 28.1126C1.14017e-06 28.1126 1.11737e-06 28.1126 1.09456e-06 28.1126C1.07176e-06 28.1126 1.04896e-06 28.1126 1.02615e-06 28.1126C1.00335e-06 28.1126 9.80546e-07 28.1126 9.57743e-07 28.1126C9.34939e-07 28.1126 9.12136e-07 28.1126 8.89333e-07 28.1126C8.66529e-07 28.1126 8.43726e-07 28.1126 8.20922e-07 28.1126C7.98119e-07 28.1126 7.75316e-07 28.1126 7.52512e-07 28.1126C7.29709e-07 28.1126 7.06905e-07 28.1126 6.84102e-07 28.1126C6.61299e-07 28.1126 6.38495e-07 28.1126 6.15692e-07 28.1126C5.92888e-07 28.1126 5.70085e-07 28.1126 5.47282e-07 28.1126C5.24478e-07 28.1126 5.01675e-07 28.1126 4.78871e-07 28.1126C4.56068e-07 28.1126 4.33265e-07 28.1126 4.10461e-07 28.1126C3.87658e-07 28.1126 3.64854e-07 28.1126 3.42051e-07 28.1126C3.19248e-07 28.1126 2.96444e-07 28.1126 2.73641e-07 28.1126C2.50837e-07 28.1126 2.28034e-07 28.1126 2.05231e-07 28.1126C1.82427e-07 28.1126 1.59624e-07 28.1126 1.3682e-07 28.1126C1.14017e-07 28.1126 9.12136e-08 28.1126 6.84102e-08 28.1126C4.56068e-08 28.1126 2.28034e-08 28.1126 0 28.1126V68.1126C2.28034e-08 68.1126 4.56068e-08 68.1126 6.84102e-08 68.1126C9.12136e-08 68.1126 1.14017e-07 68.1126 1.3682e-07 68.1126C1.59624e-07 68.1126 1.82427e-07 68.1126 2.05231e-07 68.1126C2.28034e-07 68.1126 2.50837e-07 68.1126 2.73641e-07 68.1126C2.96444e-07 68.1126 3.19248e-07 68.1126 3.42051e-07 68.1126C3.64854e-07 68.1126 3.87658e-07 68.1126 4.10461e-07 68.1126C4.33265e-07 68.1126 4.56068e-07 68.1126 4.78871e-07 68.1126C5.01675e-07 68.1126 5.24478e-07 68.1126 5.47282e-07 68.1126C5.70085e-07 68.1126 5.92888e-07 68.1126 6.15692e-07 68.1126C6.38495e-07 68.1126 6.61299e-07 68.1126 6.84102e-07 68.1126C7.06905e-07 68.1126 7.29709e-07 68.1126 7.52512e-07 68.1126C7.75316e-07 68.1126 7.98119e-07 68.1126 8.20922e-07 68.1126C8.43726e-07 68.1126 8.66529e-07 68.1126 8.89333e-07 68.1126C9.12136e-07 68.1126 9.34939e-07 68.1126 9.57743e-07 68.1126C9.80546e-07 68.1126 1.00335e-06 68.1126 1.02615e-06 68.1126C1.04896e-06 68.1126 1.07176e-06 68.1126 1.09456e-06 68.1126C1.11737e-06 68.1126 1.14017e-06 68.1126 1.16297e-06 68.1126C1.18578e-06 68.1126 1.20858e-06 68.1126 1.23138e-06 68.1126C1.25419e-06 68.1126 1.27699e-06 68.1126 1.29979e-06 68.1126C1.3226e-06 68.1126 1.3454e-06 68.1126 1.3682e-06 68.1126C1.39101e-06 68.1126 1.41381e-06 68.1126 1.43661e-06 68.1126C1.45942e-06 68.1126 1.48222e-06 68.1126 1.50502e-06 68.1126C1.52783e-06 68.1126 1.55063e-06 68.1126 1.57343e-06 68.1126C1.59624e-06 68.1126 1.61904e-06 68.1126 1.64184e-06 68.1126C1.66465e-06 68.1126 1.68745e-06 68.1126 1.71026e-06 68.1126C1.73306e-06 68.1126 1.75586e-06 68.1126 1.77867e-06 68.1126C1.80147e-06 68.1126 1.82427e-06 68.1126 1.84708e-06 68.1126C1.86988e-06 68.1126 1.89268e-06 68.1126 1.91549e-06 68.1126C1.93829e-06 68.1126 1.96109e-06 68.1126 1.9839e-06 68.1126C2.0067e-06 68.1126 2.0295e-06 68.1126 2.05231e-06 68.1126C2.07511e-06 68.1126 2.09791e-06 68.1126 2.12072e-06 68.1126C2.14352e-06 68.1126 2.16632e-06 68.1126 2.18913e-06 68.1126C2.21193e-06 68.1126 2.23473e-06 68.1126 2.25754e-06 68.1126C2.28034e-06 68.1126 2.30314e-06 68.1126 2.32595e-06 68.1126C2.34875e-06 68.1126 2.37155e-06 68.1126 2.39436e-06 68.1126C2.41716e-06 68.1126 2.43996e-06 68.1126 2.46277e-06 68.1126C2.48557e-06 68.1126 2.50837e-06 68.1126 2.53118e-06 68.1126C2.55398e-06 68.1126 2.57678e-06 68.1126 2.59959e-06 68.1126C2.62239e-06 68.1126 2.64519e-06 68.1126 2.668e-06 68.1126C2.6908e-06 68.1126 2.7136e-06 68.1126 2.73641e-06 68.1126C2.75921e-06 68.1126 2.78202e-06 68.1126 2.80482e-06 68.1126C2.82762e-06 68.1126 2.85043e-06 68.1126 2.87323e-06 68.1126C2.89603e-06 68.1126 2.91884e-06 68.1126 2.94164e-06 68.1126C2.96444e-06 68.1126 2.98725e-06 68.1126 3.01005e-06 68.1126C3.03285e-06 68.1126 3.05566e-06 68.1126 3.07846e-06 68.1126C3.10126e-06 68.1126 3.12407e-06 68.1126 3.14687e-06 68.1126C3.16967e-06 68.1126 3.19248e-06 68.1126 3.21528e-06 68.1126C3.23808e-06 68.1126 3.26089e-06 68.1126 3.28369e-06 68.1126C3.30649e-06 68.1126 3.3293e-06 68.1126 3.3521e-06 68.1126C3.3749e-06 68.1126 3.39771e-06 68.1126 3.42051e-06 68.1126C3.44331e-06 68.1126 3.46612e-06 68.1126 3.48892e-06 68.1126C3.51172e-06 68.1126 3.53453e-06 68.1126 3.55733e-06 68.1126C3.58013e-06 68.1126 3.60294e-06 68.1126 3.62574e-06 68.1126C3.64854e-06 68.1126 3.67135e-06 68.1126 3.69415e-06 68.1126C3.71695e-06 68.1126 3.73976e-06 68.1126 3.76256e-06 68.1126C3.78536e-06 68.1126 3.80817e-06 68.1126 3.83097e-06 68.1126C3.85377e-06 68.1126 3.87658e-06 68.1126 3.89938e-06 68.1126C3.92219e-06 68.1126 3.94499e-06 68.1126 3.96779e-06 68.1126C3.9906e-06 68.1126 4.0134e-06 68.1126 4.0362e-06 68.1126C4.05901e-06 68.1126 4.08181e-06 68.1126 4.10461e-06 68.1126C4.12742e-06 68.1126 4.15022e-06 68.1126 4.17302e-06 68.1126C4.19583e-06 68.1126 4.21863e-06 68.1126 4.24143e-06 68.1126C4.26424e-06 68.1126 4.28704e-06 68.1126 4.30984e-06 68.1126C4.33265e-06 68.1126 4.35545e-06 68.1126 4.37825e-06 68.1126C4.40106e-06 68.1126 4.42386e-06 68.1126 4.44666e-06 68.1126C4.46947e-06 68.1126 4.49227e-06 68.1126 4.51507e-06 68.1126C4.53788e-06 68.1126 4.56068e-06 68.1126 4.58348e-06 68.1126C4.60629e-06 68.1126 4.62909e-06 68.1126 4.65189e-06 68.1126C4.6747e-06 68.1126 4.6975e-06 68.1126 4.7203e-06 68.1126C4.74311e-06 68.1126 4.76591e-06 68.1126 4.78871e-06 68.1126C4.81152e-06 68.1126 4.83432e-06 68.1126 4.85712e-06 68.1126C4.87993e-06 68.1126 4.90273e-06 68.1126 4.92553e-06 68.1126C4.94834e-06 68.1126 4.97114e-06 68.1126 4.99394e-06 68.1126C5.01675e-06 68.1126 5.03955e-06 68.1126 5.06236e-06 68.1126C5.08516e-06 68.1126 5.10796e-06 68.1126 5.13077e-06 68.1126C5.15357e-06 68.1126 5.17637e-06 68.1126 5.19918e-06 68.1126C5.22198e-06 68.1126 5.24478e-06 68.1126 5.26759e-06 68.1126C5.29039e-06 68.1126 5.31319e-06 68.1126 5.336e-06 68.1126C5.3588e-06 68.1126 5.3816e-06 68.1126 5.40441e-06 68.1126C5.42721e-06 68.1126 5.45001e-06 68.1126 5.47282e-06 68.1126C5.49562e-06 68.1126 5.51842e-06 68.1126 5.54123e-06 68.1126C5.56403e-06 68.1126 5.58683e-06 68.1126 5.60964e-06 68.1126C5.63244e-06 68.1126 5.65524e-06 68.1126 5.67805e-06 68.1126C5.70085e-06 68.1126 5.72365e-06 68.1126 5.74646e-06 68.1126C5.76926e-06 68.1126 5.79206e-06 68.1126 5.81487e-06 68.1126C5.83767e-06 68.1126 5.86047e-06 68.1126 5.88328e-06 68.1126C5.90608e-06 68.1126 5.92888e-06 68.1126 5.95169e-06 68.1126C5.97449e-06 68.1126 5.99729e-06 68.1126 6.0201e-06 68.1126C6.0429e-06 68.1126 6.0657e-06 68.1126 6.08851e-06 68.1126C6.11131e-06 68.1126 6.13412e-06 68.1126 6.15692e-06 68.1126C6.17972e-06 68.1126 6.20253e-06 68.1126 6.22533e-06 68.1126C6.24813e-06 68.1126 6.27094e-06 68.1126 6.29374e-06 68.1126C6.31654e-06 68.1126 6.33935e-06 68.1126 6.36215e-06 68.1126C6.38495e-06 68.1126 6.40776e-06 68.1126 6.43056e-06 68.1126C6.45336e-06 68.1126 6.47617e-06 68.1126 6.49897e-06 68.1126C6.52177e-06 68.1126 6.54458e-06 68.1126 6.56738e-06 68.1126C6.59018e-06 68.1126 6.61299e-06 68.1126 6.63579e-06 68.1126C6.65859e-06 68.1126 6.6814e-06 68.1126 6.7042e-06 68.1126C6.727e-06 68.1126 6.74981e-06 68.1126 6.77261e-06 68.1126C6.79541e-06 68.1126 6.81822e-06 68.1126 6.84102e-06 68.1126C6.86382e-06 68.1126 6.88663e-06 68.1126 6.90943e-06 68.1126C6.93223e-06 68.1126 6.95504e-06 68.1126 6.97784e-06 68.1126C7.00064e-06 68.1126 7.02345e-06 68.1126 7.04625e-06 68.1126C7.06905e-06 68.1126 7.09186e-06 68.1126 7.11466e-06 68.1126C7.13746e-06 68.1126 7.16027e-06 68.1126 7.18307e-06 68.1126C7.20587e-06 68.1126 7.22868e-06 68.1126 7.25148e-06 68.1126C7.27429e-06 68.1126 7.29709e-06 68.1126 7.31989e-06 68.1126C7.3427e-06 68.1126 7.3655e-06 68.1126 7.3883e-06 68.1126C7.41111e-06 68.1126 7.43391e-06 68.1126 7.45671e-06 68.1126C7.47952e-06 68.1126 7.50232e-06 68.1126 7.52512e-06 68.1126C7.54793e-06 68.1126 7.57073e-06 68.1126 7.59353e-06 68.1126C7.61634e-06 68.1126 7.63914e-06 68.1126 7.66194e-06 68.1126C7.68475e-06 68.1126 7.70755e-06 68.1126 7.73035e-06 68.1126C7.75316e-06 68.1126 7.77596e-06 68.1126 7.79876e-06 68.1126C7.82157e-06 68.1126 7.84437e-06 68.1126 7.86717e-06 68.1126C7.88998e-06 68.1126 7.91278e-06 68.1126 7.93558e-06 68.1126C7.95839e-06 68.1126 7.98119e-06 68.1126 8.00399e-06 68.1126C8.0268e-06 68.1126 8.0496e-06 68.1126 8.0724e-06 68.1126C8.09521e-06 68.1126 8.11801e-06 68.1126 8.14081e-06 68.1126C8.16362e-06 68.1126 8.18642e-06 68.1126 8.20922e-06 68.1126C8.23203e-06 68.1126 8.25483e-06 68.1126 8.27763e-06 68.1126C8.30044e-06 68.1126 8.32324e-06 68.1126 8.34605e-06 68.1126C8.36885e-06 68.1126 8.39165e-06 68.1126 8.41446e-06 68.1126C8.43726e-06 68.1126 8.46006e-06 68.1126 8.48287e-06 68.1126C8.50567e-06 68.1126 8.52847e-06 68.1126 8.55128e-06 68.1126C8.57408e-06 68.1126 8.59688e-06 68.1126 8.61969e-06 68.1126C8.64249e-06 68.1126 8.66529e-06 68.1126 8.6881e-06 68.1126C8.7109e-06 68.1126 8.7337e-06 68.1126 8.75651e-06 68.1126C8.77931e-06 68.1126 8.80211e-06 68.1126 8.82492e-06 68.1126C8.84772e-06 68.1126 8.87052e-06 68.1126 8.89333e-06 68.1126C8.91613e-06 68.1126 8.93893e-06 68.1126 8.96174e-06 68.1126C8.98454e-06 68.1126 9.00734e-06 68.1126 9.03015e-06 68.1126C9.05295e-06 68.1126 9.07575e-06 68.1126 9.09856e-06 68.1126C9.12136e-06 68.1126 9.14416e-06 68.1126 9.16697e-06 68.1126C9.18977e-06 68.1126 9.21257e-06 68.1126 9.23538e-06 68.1126C9.25818e-06 68.1126 9.28098e-06 68.1126 9.30379e-06 68.1126C9.32659e-06 68.1126 9.34939e-06 68.1126 9.3722e-06 68.1126C9.395e-06 68.1126 9.4178e-06 68.1126 9.44061e-06 68.1126C9.46341e-06 68.1126 9.48622e-06 68.1126 9.50902e-06 68.1126C9.53182e-06 68.1126 9.55463e-06 68.1126 9.57743e-06 68.1126C9.60023e-06 68.1126 9.62304e-06 68.1126 9.64584e-06 68.1126C9.66864e-06 68.1126 9.69145e-06 68.1126 9.71425e-06 68.1126C9.73705e-06 68.1126 9.75986e-06 68.1126 9.78266e-06 68.1126C9.80546e-06 68.1126 9.82827e-06 68.1126 9.85107e-06 68.1126C9.87387e-06 68.1126 9.89668e-06 68.1126 9.91948e-06 68.1126C9.94228e-06 68.1126 9.96509e-06 68.1126 9.98789e-06 68.1126C1.00107e-05 68.1126 1.00335e-05 68.1126 1.00563e-05 68.1126C1.00791e-05 68.1126 1.01019e-05 68.1126 1.01247e-05 68.1126C1.01475e-05 68.1126 1.01703e-05 68.1126 1.01931e-05 68.1126C1.02159e-05 68.1126 1.02387e-05 68.1126 1.02615e-05 68.1126C1.02843e-05 68.1126 1.03071e-05 68.1126 1.03299e-05 68.1126C1.03527e-05 68.1126 1.03755e-05 68.1126 1.03984e-05 68.1126C1.04212e-05 68.1126 1.0444e-05 68.1126 1.04668e-05 68.1126C1.04896e-05 68.1126 1.05124e-05 68.1126 1.05352e-05 68.1126C1.0558e-05 68.1126 1.05808e-05 68.1126 1.06036e-05 68.1126C1.06264e-05 68.1126 1.06492e-05 68.1126 1.0672e-05 68.1126C1.06948e-05 68.1126 1.07176e-05 68.1126 1.07404e-05 68.1126C1.07632e-05 68.1126 1.0786e-05 68.1126 1.08088e-05 68.1126C1.08316e-05 68.1126 1.08544e-05 68.1126 1.08772e-05 68.1126C1.09e-05 68.1126 1.09228e-05 68.1126 1.09456e-05 68.1126C1.09684e-05 68.1126 1.09912e-05 68.1126 1.1014e-05 68.1126C1.10368e-05 68.1126 1.10596e-05 68.1126 1.10825e-05 68.1126C1.11053e-05 68.1126 1.11281e-05 68.1126 1.11509e-05 68.1126C1.11737e-05 68.1126 1.11965e-05 68.1126 1.12193e-05 68.1126C1.12421e-05 68.1126 1.12649e-05 68.1126 1.12877e-05 68.1126C1.13105e-05 68.1126 1.13333e-05 68.1126 1.13561e-05 68.1126C1.13789e-05 68.1126 1.14017e-05 68.1126 1.14245e-05 68.1126C1.14473e-05 68.1126 1.14701e-05 68.1126 1.14929e-05 68.1126C1.15157e-05 68.1126 1.15385e-05 68.1126 1.15613e-05 68.1126C1.15841e-05 68.1126 1.16069e-05 68.1126 1.16297e-05 68.1126C1.16525e-05 68.1126 1.16753e-05 68.1126 1.16981e-05 68.1126C1.17209e-05 68.1126 1.17438e-05 68.1126 1.17666e-05 68.1126C1.17894e-05 68.1126 1.18122e-05 68.1126 1.1835e-05 68.1126C1.18578e-05 68.1126 1.18806e-05 68.1126 1.19034e-05 68.1126C1.19262e-05 68.1126 1.1949e-05 68.1126 1.19718e-05 68.1126C1.19946e-05 68.1126 1.20174e-05 68.1126 1.20402e-05 68.1126C1.2063e-05 68.1126 1.20858e-05 68.1126 1.21086e-05 68.1126C1.21314e-05 68.1126 1.21542e-05 68.1126 1.2177e-05 68.1126C1.21998e-05 68.1126 1.22226e-05 68.1126 1.22454e-05 68.1126C1.22682e-05 68.1126 1.2291e-05 68.1126 1.23138e-05 68.1126C1.23366e-05 68.1126 1.23594e-05 68.1126 1.23822e-05 68.1126C1.24051e-05 68.1126 1.24279e-05 68.1126 1.24507e-05 68.1126C1.24735e-05 68.1126 1.24963e-05 68.1126 1.25191e-05 68.1126C1.25419e-05 68.1126 1.25647e-05 68.1126 1.25875e-05 68.1126C1.26103e-05 68.1126 1.26331e-05 68.1126 1.26559e-05 68.1126C1.26787e-05 68.1126 1.27015e-05 68.1126 1.27243e-05 68.1126C1.27471e-05 68.1126 1.27699e-05 68.1126 1.27927e-05 68.1126C1.28155e-05 68.1126 1.28383e-05 68.1126 1.28611e-05 68.1126C1.28839e-05 68.1126 1.29067e-05 68.1126 1.29295e-05 68.1126C1.29523e-05 68.1126 1.29751e-05 68.1126 1.29979e-05 68.1126C1.30207e-05 68.1126 1.30435e-05 68.1126 1.30663e-05 68.1126C1.30892e-05 68.1126 1.3112e-05 68.1126 1.31348e-05 68.1126C1.31576e-05 68.1126 1.31804e-05 68.1126 1.32032e-05 68.1126C1.3226e-05 68.1126 1.32488e-05 68.1126 1.32716e-05 68.1126C1.32944e-05 68.1126 1.33172e-05 68.1126 1.334e-05 68.1126C1.33628e-05 68.1126 1.33856e-05 68.1126 1.34084e-05 68.1126C1.34312e-05 68.1126 1.3454e-05 68.1126 1.34768e-05 68.1126C1.34996e-05 68.1126 1.35224e-05 68.1126 1.35452e-05 68.1126C1.3568e-05 68.1126 1.35908e-05 68.1126 1.36136e-05 68.1126C1.36364e-05 68.1126 1.36592e-05 68.1126 1.3682e-05 68.1126C1.37048e-05 68.1126 1.37276e-05 68.1126 1.37505e-05 68.1126C1.37733e-05 68.1126 1.37961e-05 68.1126 1.38189e-05 68.1126C1.38417e-05 68.1126 1.38645e-05 68.1126 1.38873e-05 68.1126C1.39101e-05 68.1126 1.39329e-05 68.1126 1.39557e-05 68.1126C1.39785e-05 68.1126 1.40013e-05 68.1126 1.40241e-05 68.1126C1.40469e-05 68.1126 1.40697e-05 68.1126 1.40925e-05 68.1126C1.41153e-05 68.1126 1.41381e-05 68.1126 1.41609e-05 68.1126C1.41837e-05 68.1126 1.42065e-05 68.1126 1.42293e-05 68.1126C1.42521e-05 68.1126 1.42749e-05 68.1126 1.42977e-05 68.1126C1.43205e-05 68.1126 1.43433e-05 68.1126 1.43661e-05 68.1126C1.43889e-05 68.1126 1.44117e-05 68.1126 1.44346e-05 68.1126C1.44574e-05 68.1126 1.44802e-05 68.1126 1.4503e-05 68.1126C1.45258e-05 68.1126 1.45486e-05 68.1126 1.45714e-05 68.1126C1.45942e-05 68.1126 1.4617e-05 68.1126 1.46398e-05 68.1126C1.46626e-05 68.1126 1.46854e-05 68.1126 1.47082e-05 68.1126C1.4731e-05 68.1126 1.47538e-05 68.1126 1.47766e-05 68.1126C1.47994e-05 68.1126 1.48222e-05 68.1126 1.4845e-05 68.1126C1.48678e-05 68.1126 1.48906e-05 68.1126 1.49134e-05 68.1126C1.49362e-05 68.1126 1.4959e-05 68.1126 1.49818e-05 68.1126C1.50046e-05 68.1126 1.50274e-05 68.1126 1.50502e-05 68.1126C1.5073e-05 68.1126 1.50959e-05 68.1126 1.51187e-05 68.1126C1.51415e-05 68.1126 1.51643e-05 68.1126 1.51871e-05 68.1126C1.52099e-05 68.1126 1.52327e-05 68.1126 1.52555e-05 68.1126C1.52783e-05 68.1126 1.53011e-05 68.1126 1.53239e-05 68.1126C1.53467e-05 68.1126 1.53695e-05 68.1126 1.53923e-05 68.1126C1.54151e-05 68.1126 1.54379e-05 68.1126 1.54607e-05 68.1126C1.54835e-05 68.1126 1.55063e-05 68.1126 1.55291e-05 68.1126C1.55519e-05 68.1126 1.55747e-05 68.1126 1.55975e-05 68.1126C1.56203e-05 68.1126 1.56431e-05 68.1126 1.56659e-05 68.1126C1.56887e-05 68.1126 1.57115e-05 68.1126 1.57343e-05 68.1126C1.57572e-05 68.1126 1.578e-05 68.1126 1.58028e-05 68.1126C1.58256e-05 68.1126 1.58484e-05 68.1126 1.58712e-05 68.1126C1.5894e-05 68.1126 1.59168e-05 68.1126 1.59396e-05 68.1126C1.59624e-05 68.1126 1.59852e-05 68.1126 1.6008e-05 68.1126C1.60308e-05 68.1126 1.60536e-05 68.1126 1.60764e-05 68.1126C1.60992e-05 68.1126 1.6122e-05 68.1126 1.61448e-05 68.1126C1.61676e-05 68.1126 1.61904e-05 68.1126 1.62132e-05 68.1126C1.6236e-05 68.1126 1.62588e-05 68.1126 1.62816e-05 68.1126C1.63044e-05 68.1126 1.63272e-05 68.1126 1.635e-05 68.1126C1.63728e-05 68.1126 1.63956e-05 68.1126 1.64184e-05 68.1126C1.64413e-05 68.1126 1.64641e-05 68.1126 1.64869e-05 68.1126C1.65097e-05 68.1126 1.65325e-05 68.1126 1.65553e-05 68.1126C1.65781e-05 68.1126 1.66009e-05 68.1126 1.66237e-05 68.1126C1.66465e-05 68.1126 1.66693e-05 68.1126 1.66921e-05 68.1126C1.67149e-05 68.1126 1.67377e-05 68.1126 1.67605e-05 68.1126C1.67833e-05 68.1126 1.68061e-05 68.1126 1.68289e-05 68.1126C1.68517e-05 68.1126 1.68745e-05 68.1126 1.68973e-05 68.1126C1.69201e-05 68.1126 1.69429e-05 68.1126 1.69657e-05 68.1126C1.69885e-05 68.1126 1.70113e-05 68.1126 1.70341e-05 68.1126C1.70569e-05 68.1126 1.70797e-05 68.1126 1.71026e-05 68.1126C1.71254e-05 68.1126 1.71482e-05 68.1126 1.7171e-05 68.1126C1.71938e-05 68.1126 1.72166e-05 68.1126 1.72394e-05 68.1126C1.72622e-05 68.1126 1.7285e-05 68.1126 1.73078e-05 68.1126C1.73306e-05 68.1126 1.73534e-05 68.1126 1.73762e-05 68.1126C1.7399e-05 68.1126 1.74218e-05 68.1126 1.74446e-05 68.1126C1.74674e-05 68.1126 1.74902e-05 68.1126 1.7513e-05 68.1126C1.75358e-05 68.1126 1.75586e-05 68.1126 1.75814e-05 68.1126C1.76042e-05 68.1126 1.7627e-05 68.1126 1.76498e-05 68.1126C1.76726e-05 68.1126 1.76954e-05 68.1126 1.77182e-05 68.1126C1.7741e-05 68.1126 1.77638e-05 68.1126 1.77867e-05 68.1126C1.78095e-05 68.1126 1.78323e-05 68.1126 1.78551e-05 68.1126C1.78779e-05 68.1126 1.79007e-05 68.1126 1.79235e-05 68.1126C1.79463e-05 68.1126 1.79691e-05 68.1126 1.79919e-05 68.1126C1.80147e-05 68.1126 1.80375e-05 68.1126 1.80603e-05 68.1126C1.80831e-05 68.1126 1.81059e-05 68.1126 1.81287e-05 68.1126C1.81515e-05 68.1126 1.81743e-05 68.1126 1.81971e-05 68.1126C1.82199e-05 68.1126 1.82427e-05 68.1126 1.82655e-05 68.1126C1.82883e-05 68.1126 1.83111e-05 68.1126 1.83339e-05 68.1126C1.83567e-05 68.1126 1.83795e-05 68.1126 1.84023e-05 68.1126C1.84251e-05 68.1126 1.8448e-05 68.1126 1.84708e-05 68.1126C1.84936e-05 68.1126 1.85164e-05 68.1126 1.85392e-05 68.1126C1.8562e-05 68.1126 1.85848e-05 68.1126 1.86076e-05 68.1126C1.86304e-05 68.1126 1.86532e-05 68.1126 1.8676e-05 68.1126C1.86988e-05 68.1126 1.87216e-05 68.1126 1.87444e-05 68.1126C1.87672e-05 68.1126 1.879e-05 68.1126 1.88128e-05 68.1126C1.88356e-05 68.1126 1.88584e-05 68.1126 1.88812e-05 68.1126C1.8904e-05 68.1126 1.89268e-05 68.1126 1.89496e-05 68.1126C1.89724e-05 68.1126 1.89952e-05 68.1126 1.9018e-05 68.1126C1.90408e-05 68.1126 1.90636e-05 68.1126 1.90864e-05 68.1126C1.91093e-05 68.1126 1.91321e-05 68.1126 1.91549e-05 68.1126C1.91777e-05 68.1126 1.92005e-05 68.1126 1.92233e-05 68.1126C1.92461e-05 68.1126 1.92689e-05 68.1126 1.92917e-05 68.1126C1.93145e-05 68.1126 1.93373e-05 68.1126 1.93601e-05 68.1126C1.93829e-05 68.1126 1.94057e-05 68.1126 1.94285e-05 68.1126C1.94513e-05 68.1126 1.94741e-05 68.1126 1.94969e-05 68.1126C1.95197e-05 68.1126 1.95425e-05 68.1126 1.95653e-05 68.1126C1.95881e-05 68.1126 1.96109e-05 68.1126 1.96337e-05 68.1126C1.96565e-05 68.1126 1.96793e-05 68.1126 1.97021e-05 68.1126C1.97249e-05 68.1126 1.97477e-05 68.1126 1.97705e-05 68.1126C1.97934e-05 68.1126 1.98162e-05 68.1126 1.9839e-05 68.1126C1.98618e-05 68.1126 1.98846e-05 68.1126 1.99074e-05 68.1126C1.99302e-05 68.1126 1.9953e-05 68.1126 1.99758e-05 68.1126C1.99986e-05 68.1126 2.00214e-05 68.1126 2.00442e-05 68.1126C2.0067e-05 68.1126 2.00898e-05 68.1126 2.01126e-05 68.1126C2.01354e-05 68.1126 2.01582e-05 68.1126 2.0181e-05 68.1126C2.02038e-05 68.1126 2.02266e-05 68.1126 2.02494e-05 68.1126C2.02722e-05 68.1126 2.0295e-05 68.1126 2.03178e-05 68.1126C2.03406e-05 68.1126 2.03634e-05 68.1126 2.03862e-05 68.1126C2.0409e-05 68.1126 2.04318e-05 68.1126 2.04547e-05 68.1126C2.04775e-05 68.1126 2.05003e-05 68.1126 2.05231e-05 68.1126C2.05459e-05 68.1126 2.05687e-05 68.1126 2.05915e-05 68.1126C2.06143e-05 68.1126 2.06371e-05 68.1126 2.06599e-05 68.1126C2.06827e-05 68.1126 2.07055e-05 68.1126 2.07283e-05 68.1126C2.07511e-05 68.1126 2.07739e-05 68.1126 2.07967e-05 68.1126C2.08195e-05 68.1126 2.08423e-05 68.1126 2.08651e-05 68.1126C2.08879e-05 68.1126 2.09107e-05 68.1126 2.09335e-05 68.1126C2.09563e-05 68.1126 2.09791e-05 68.1126 2.10019e-05 68.1126C2.10247e-05 68.1126 2.10475e-05 68.1126 2.10703e-05 68.1126C2.10931e-05 68.1126 2.11159e-05 68.1126 2.11388e-05 68.1126C2.11616e-05 68.1126 2.11844e-05 68.1126 2.12072e-05 68.1126C2.123e-05 68.1126 2.12528e-05 68.1126 2.12756e-05 68.1126C2.12984e-05 68.1126 2.13212e-05 68.1126 2.1344e-05 68.1126C2.13668e-05 68.1126 2.13896e-05 68.1126 2.14124e-05 68.1126C2.14352e-05 68.1126 2.1458e-05 68.1126 2.14808e-05 68.1126C2.15036e-05 68.1126 2.15264e-05 68.1126 2.15492e-05 68.1126C2.1572e-05 68.1126 2.15948e-05 68.1126 2.16176e-05 68.1126C2.16404e-05 68.1126 2.16632e-05 68.1126 2.1686e-05 68.1126C2.17088e-05 68.1126 2.17316e-05 68.1126 2.17544e-05 68.1126C2.17772e-05 68.1126 2.18001e-05 68.1126 2.18229e-05 68.1126C2.18457e-05 68.1126 2.18685e-05 68.1126 2.18913e-05 68.1126C2.19141e-05 68.1126 2.19369e-05 68.1126 2.19597e-05 68.1126C2.19825e-05 68.1126 2.20053e-05 68.1126 2.20281e-05 68.1126C2.20509e-05 68.1126 2.20737e-05 68.1126 2.20965e-05 68.1126C2.21193e-05 68.1126 2.21421e-05 68.1126 2.21649e-05 68.1126C2.21877e-05 68.1126 2.22105e-05 68.1126 2.22333e-05 68.1126C2.22561e-05 68.1126 2.22789e-05 68.1126 2.23017e-05 68.1126C2.23245e-05 68.1126 2.23473e-05 68.1126 2.23701e-05 68.1126C2.23929e-05 68.1126 2.24157e-05 68.1126 2.24385e-05 68.1126C2.24614e-05 68.1126 2.24842e-05 68.1126 2.2507e-05 68.1126C2.25298e-05 68.1126 2.25526e-05 68.1126 2.25754e-05 68.1126C2.25982e-05 68.1126 2.2621e-05 68.1126 2.26438e-05 68.1126C2.26666e-05 68.1126 2.26894e-05 68.1126 2.27122e-05 68.1126C2.2735e-05 68.1126 2.27578e-05 68.1126 2.27806e-05 68.1126C2.28034e-05 68.1126 2.28262e-05 68.1126 2.2849e-05 68.1126C2.28718e-05 68.1126 2.28946e-05 68.1126 2.29174e-05 68.1126C2.29402e-05 68.1126 2.2963e-05 68.1126 2.29858e-05 68.1126C2.30086e-05 68.1126 2.30314e-05 68.1126 2.30542e-05 68.1126C2.3077e-05 68.1126 2.30998e-05 68.1126 2.31226e-05 68.1126C2.31455e-05 68.1126 2.31683e-05 68.1126 2.31911e-05 68.1126C2.32139e-05 68.1126 2.32367e-05 68.1126 2.32595e-05 68.1126C2.32823e-05 68.1126 2.33051e-05 68.1126 2.33279e-05 68.1126C2.33507e-05 68.1126 2.33735e-05 68.1126 2.33963e-05 68.1126C2.34191e-05 68.1126 2.34419e-05 68.1126 2.34647e-05 68.1126C2.34875e-05 68.1126 2.35103e-05 68.1126 2.35331e-05 68.1126C2.35559e-05 68.1126 2.35787e-05 68.1126 2.36015e-05 68.1126C2.36243e-05 68.1126 2.36471e-05 68.1126 2.36699e-05 68.1126C2.36927e-05 68.1126 2.37155e-05 68.1126 2.37383e-05 68.1126C2.37611e-05 68.1126 2.37839e-05 68.1126 2.38068e-05 68.1126C2.38296e-05 68.1126 2.38524e-05 68.1126 2.38752e-05 68.1126C2.3898e-05 68.1126 2.39208e-05 68.1126 2.39436e-05 68.1126C2.39664e-05 68.1126 2.39892e-05 68.1126 2.4012e-05 68.1126C2.40348e-05 68.1126 2.40576e-05 68.1126 2.40804e-05 68.1126C2.41032e-05 68.1126 2.4126e-05 68.1126 2.41488e-05 68.1126C2.41716e-05 68.1126 2.41944e-05 68.1126 2.42172e-05 68.1126C2.424e-05 68.1126 2.42628e-05 68.1126 2.42856e-05 68.1126C2.43084e-05 68.1126 2.43312e-05 68.1126 2.4354e-05 68.1126C2.43768e-05 68.1126 2.43996e-05 68.1126 2.44224e-05 68.1126C2.44452e-05 68.1126 2.4468e-05 68.1126 2.44909e-05 68.1126C2.45137e-05 68.1126 2.45365e-05 68.1126 2.45593e-05 68.1126C2.45821e-05 68.1126 2.46049e-05 68.1126 2.46277e-05 68.1126C2.46505e-05 68.1126 2.46733e-05 68.1126 2.46961e-05 68.1126C2.47189e-05 68.1126 2.47417e-05 68.1126 2.47645e-05 68.1126C2.47873e-05 68.1126 2.48101e-05 68.1126 2.48329e-05 68.1126C2.48557e-05 68.1126 2.48785e-05 68.1126 2.49013e-05 68.1126C2.49241e-05 68.1126 2.49469e-05 68.1126 2.49697e-05 68.1126C2.49925e-05 68.1126 2.50153e-05 68.1126 2.50381e-05 68.1126C2.50609e-05 68.1126 2.50837e-05 68.1126 2.51065e-05 68.1126C2.51293e-05 68.1126 2.51522e-05 68.1126 2.5175e-05 68.1126C2.51978e-05 68.1126 2.52206e-05 68.1126 2.52434e-05 68.1126C2.52662e-05 68.1126 2.5289e-05 68.1126 2.53118e-05 68.1126C2.53346e-05 68.1126 2.53574e-05 68.1126 2.53802e-05 68.1126C2.5403e-05 68.1126 2.54258e-05 68.1126 2.54486e-05 68.1126C2.54714e-05 68.1126 2.54942e-05 68.1126 2.5517e-05 68.1126C2.55398e-05 68.1126 2.55626e-05 68.1126 2.55854e-05 68.1126C2.56082e-05 68.1126 2.5631e-05 68.1126 2.56538e-05 68.1126C2.56766e-05 68.1126 2.56994e-05 68.1126 2.57222e-05 68.1126C2.5745e-05 68.1126 2.57678e-05 68.1126 2.57906e-05 68.1126C2.58135e-05 68.1126 2.58363e-05 68.1126 2.58591e-05 68.1126C2.58819e-05 68.1126 2.59047e-05 68.1126 2.59275e-05 68.1126C2.59503e-05 68.1126 2.59731e-05 68.1126 2.59959e-05 68.1126C2.60187e-05 68.1126 2.60415e-05 68.1126 2.60643e-05 68.1126C2.60871e-05 68.1126 2.61099e-05 68.1126 2.61327e-05 68.1126C2.61555e-05 68.1126 2.61783e-05 68.1126 2.62011e-05 68.1126C2.62239e-05 68.1126 2.62467e-05 68.1126 2.62695e-05 68.1126C2.62923e-05 68.1126 2.63151e-05 68.1126 2.63379e-05 68.1126C2.63607e-05 68.1126 2.63835e-05 68.1126 2.64063e-05 68.1126C2.64291e-05 68.1126 2.64519e-05 68.1126 2.64747e-05 68.1126C2.64976e-05 68.1126 2.65204e-05 68.1126 2.65432e-05 68.1126C2.6566e-05 68.1126 2.65888e-05 68.1126 2.66116e-05 68.1126C2.66344e-05 68.1126 2.66572e-05 68.1126 2.668e-05 68.1126C2.67028e-05 68.1126 2.67256e-05 68.1126 2.67484e-05 68.1126C2.67712e-05 68.1126 2.6794e-05 68.1126 2.68168e-05 68.1126C2.68396e-05 68.1126 2.68624e-05 68.1126 2.68852e-05 68.1126C2.6908e-05 68.1126 2.69308e-05 68.1126 2.69536e-05 68.1126C2.69764e-05 68.1126 2.69992e-05 68.1126 2.7022e-05 68.1126C2.70448e-05 68.1126 2.70676e-05 68.1126 2.70904e-05 68.1126C2.71132e-05 68.1126 2.7136e-05 68.1126 2.71589e-05 68.1126C2.71817e-05 68.1126 2.72045e-05 68.1126 2.72273e-05 68.1126C2.72501e-05 68.1126 2.72729e-05 68.1126 2.72957e-05 68.1126C2.73185e-05 68.1126 2.73413e-05 68.1126 2.73641e-05 68.1126C2.73869e-05 68.1126 2.74097e-05 68.1126 2.74325e-05 68.1126C2.74553e-05 68.1126 2.74781e-05 68.1126 2.75009e-05 68.1126C2.75237e-05 68.1126 2.75465e-05 68.1126 2.75693e-05 68.1126C2.75921e-05 68.1126 2.76149e-05 68.1126 2.76377e-05 68.1126C2.76605e-05 68.1126 2.76833e-05 68.1126 2.77061e-05 68.1126C2.77289e-05 68.1126 2.77517e-05 68.1126 2.77745e-05 68.1126C2.77973e-05 68.1126 2.78201e-05 68.1126 2.7843e-05 68.1126C2.78658e-05 68.1126 2.78886e-05 68.1126 2.79114e-05 68.1126C2.79342e-05 68.1126 2.7957e-05 68.1126 2.79798e-05 68.1126C2.80026e-05 68.1126 2.80254e-05 68.1126 2.80482e-05 68.1126C2.8071e-05 68.1126 2.80938e-05 68.1126 2.81166e-05 68.1126C2.81394e-05 68.1126 2.81622e-05 68.1126 2.8185e-05 68.1126C2.82078e-05 68.1126 2.82306e-05 68.1126 2.82534e-05 68.1126C2.82762e-05 68.1126 2.8299e-05 68.1126 2.83218e-05 68.1126C2.83446e-05 68.1126 2.83674e-05 68.1126 2.83902e-05 68.1126C2.8413e-05 68.1126 2.84358e-05 68.1126 2.84586e-05 68.1126C2.84814e-05 68.1126 2.85043e-05 68.1126 2.85271e-05 68.1126C2.85499e-05 68.1126 2.85727e-05 68.1126 2.85955e-05 68.1126C2.86183e-05 68.1126 2.86411e-05 68.1126 2.86639e-05 68.1126C2.86867e-05 68.1126 2.87095e-05 68.1126 2.87323e-05 68.1126C2.87551e-05 68.1126 2.87779e-05 68.1126 2.88007e-05 68.1126C2.88235e-05 68.1126 2.88463e-05 68.1126 2.88691e-05 68.1126C2.88919e-05 68.1126 2.89147e-05 68.1126 2.89375e-05 68.1126C2.89603e-05 68.1126 2.89831e-05 68.1126 2.90059e-05 68.1126C2.90287e-05 68.1126 2.90515e-05 68.1126 2.90743e-05 68.1126C2.90971e-05 68.1126 2.91199e-05 68.1126 2.91427e-05 68.1126C2.91655e-05 68.1126 2.91884e-05 68.1126 2.92112e-05 68.1126C2.9234e-05 68.1126 2.92568e-05 68.1126 2.92796e-05 68.1126C2.93024e-05 68.1126 2.93252e-05 68.1126 2.9348e-05 68.1126C2.93708e-05 68.1126 2.93936e-05 68.1126 2.94164e-05 68.1126C2.94392e-05 68.1126 2.9462e-05 68.1126 2.94848e-05 68.1126C2.95076e-05 68.1126 2.95304e-05 68.1126 2.95532e-05 68.1126C2.9576e-05 68.1126 2.95988e-05 68.1126 2.96216e-05 68.1126C2.96444e-05 68.1126 2.96672e-05 68.1126 2.969e-05 68.1126C2.97128e-05 68.1126 2.97356e-05 68.1126 2.97584e-05 68.1126C2.97812e-05 68.1126 2.9804e-05 68.1126 2.98268e-05 68.1126C2.98497e-05 68.1126 2.98725e-05 68.1126 2.98953e-05 68.1126C2.99181e-05 68.1126 2.99409e-05 68.1126 2.99637e-05 68.1126C2.99865e-05 68.1126 3.00093e-05 68.1126 3.00321e-05 68.1126C3.00549e-05 68.1126 3.00777e-05 68.1126 3.01005e-05 68.1126C3.01233e-05 68.1126 3.01461e-05 68.1126 3.01689e-05 68.1126C3.01917e-05 68.1126 3.02145e-05 68.1126 3.02373e-05 68.1126C3.02601e-05 68.1126 3.02829e-05 68.1126 3.03057e-05 68.1126C3.03285e-05 68.1126 3.03513e-05 68.1126 3.03741e-05 68.1126C3.03969e-05 68.1126 3.04197e-05 68.1126 3.04425e-05 68.1126C3.04653e-05 68.1126 3.04881e-05 68.1126 3.0511e-05 68.1126C3.05338e-05 68.1126 3.05566e-05 68.1126 3.05794e-05 68.1126C3.06022e-05 68.1126 3.0625e-05 68.1126 3.06478e-05 68.1126C3.06706e-05 68.1126 3.06934e-05 68.1126 3.07162e-05 68.1126C3.0739e-05 68.1126 3.07618e-05 68.1126 3.07846e-05 68.1126C3.08074e-05 68.1126 3.08302e-05 68.1126 3.0853e-05 68.1126C3.08758e-05 68.1126 3.08986e-05 68.1126 3.09214e-05 68.1126C3.09442e-05 68.1126 3.0967e-05 68.1126 3.09898e-05 68.1126C3.10126e-05 68.1126 3.10354e-05 68.1126 3.10582e-05 68.1126C3.1081e-05 68.1126 3.11038e-05 68.1126 3.11266e-05 68.1126C3.11494e-05 68.1126 3.11722e-05 68.1126 3.11951e-05 68.1126C3.12179e-05 68.1126 3.12407e-05 68.1126 3.12635e-05 68.1126C3.12863e-05 68.1126 3.13091e-05 68.1126 3.13319e-05 68.1126C3.13547e-05 68.1126 3.13775e-05 68.1126 3.14003e-05 68.1126C3.14231e-05 68.1126 3.14459e-05 68.1126 3.14687e-05 68.1126C3.14915e-05 68.1126 3.15143e-05 68.1126 3.15371e-05 68.1126C3.15599e-05 68.1126 3.15827e-05 68.1126 3.16055e-05 68.1126C3.16283e-05 68.1126 3.16511e-05 68.1126 3.16739e-05 68.1126C3.16967e-05 68.1126 3.17195e-05 68.1126 3.17423e-05 68.1126C3.17651e-05 68.1126 3.17879e-05 68.1126 3.18107e-05 68.1126C3.18335e-05 68.1126 3.18564e-05 68.1126 3.18792e-05 68.1126C3.1902e-05 68.1126 3.19248e-05 68.1126 3.19476e-05 68.1126C3.19704e-05 68.1126 3.19932e-05 68.1126 3.2016e-05 68.1126C3.20388e-05 68.1126 3.20616e-05 68.1126 3.20844e-05 68.1126C3.21072e-05 68.1126 3.213e-05 68.1126 3.21528e-05 68.1126C3.21756e-05 68.1126 3.21984e-05 68.1126 3.22212e-05 68.1126C3.2244e-05 68.1126 3.22668e-05 68.1126 3.22896e-05 68.1126C3.23124e-05 68.1126 3.23352e-05 68.1126 3.2358e-05 68.1126C3.23808e-05 68.1126 3.24036e-05 68.1126 3.24264e-05 68.1126C3.24492e-05 68.1126 3.2472e-05 68.1126 3.24948e-05 68.1126C3.25176e-05 68.1126 3.25405e-05 68.1126 3.25633e-05 68.1126C3.25861e-05 68.1126 3.26089e-05 68.1126 3.26317e-05 68.1126C3.26545e-05 68.1126 3.26773e-05 68.1126 3.27001e-05 68.1126C3.27229e-05 68.1126 3.27457e-05 68.1126 3.27685e-05 68.1126C3.27913e-05 68.1126 3.28141e-05 68.1126 3.28369e-05 68.1126C3.28597e-05 68.1126 3.28825e-05 68.1126 3.29053e-05 68.1126C3.29281e-05 68.1126 3.29509e-05 68.1126 3.29737e-05 68.1126C3.29965e-05 68.1126 3.30193e-05 68.1126 3.30421e-05 68.1126C3.30649e-05 68.1126 3.30877e-05 68.1126 3.31105e-05 68.1126C3.31333e-05 68.1126 3.31561e-05 68.1126 3.31789e-05 68.1126C3.32018e-05 68.1126 3.32246e-05 68.1126 3.32474e-05 68.1126C3.32702e-05 68.1126 3.3293e-05 68.1126 3.33158e-05 68.1126C3.33386e-05 68.1126 3.33614e-05 68.1126 3.33842e-05 68.1126C3.3407e-05 68.1126 3.34298e-05 68.1126 3.34526e-05 68.1126C3.34754e-05 68.1126 3.34982e-05 68.1126 3.3521e-05 68.1126C3.35438e-05 68.1126 3.35666e-05 68.1126 3.35894e-05 68.1126C3.36122e-05 68.1126 3.3635e-05 68.1126 3.36578e-05 68.1126C3.36806e-05 68.1126 3.37034e-05 68.1126 3.37262e-05 68.1126C3.3749e-05 68.1126 3.37718e-05 68.1126 3.37946e-05 68.1126C3.38174e-05 68.1126 3.38402e-05 68.1126 3.38631e-05 68.1126C3.38859e-05 68.1126 3.39087e-05 68.1126 3.39315e-05 68.1126C3.39543e-05 68.1126 3.39771e-05 68.1126 3.39999e-05 68.1126C3.40227e-05 68.1126 3.40455e-05 68.1126 3.40683e-05 68.1126C3.40911e-05 68.1126 3.41139e-05 68.1126 3.41367e-05 68.1126C3.41595e-05 68.1126 3.41823e-05 68.1126 3.42051e-05 68.1126C3.42279e-05 68.1126 3.42507e-05 68.1126 3.42735e-05 68.1126C3.42963e-05 68.1126 3.43191e-05 68.1126 3.43419e-05 68.1126C3.43647e-05 68.1126 3.43875e-05 68.1126 3.44103e-05 68.1126C3.44331e-05 68.1126 3.44559e-05 68.1126 3.44787e-05 68.1126C3.45015e-05 68.1126 3.45243e-05 68.1126 3.45472e-05 68.1126C3.457e-05 68.1126 3.45928e-05 68.1126 3.46156e-05 68.1126C3.46384e-05 68.1126 3.46612e-05 68.1126 3.4684e-05 68.1126C3.47068e-05 68.1126 3.47296e-05 68.1126 3.47524e-05 68.1126C3.47752e-05 68.1126 3.4798e-05 68.1126 3.48208e-05 68.1126C3.48436e-05 68.1126 3.48664e-05 68.1126 3.48892e-05 68.1126C3.4912e-05 68.1126 3.49348e-05 68.1126 3.49576e-05 68.1126C3.49804e-05 68.1126 3.50032e-05 68.1126 3.5026e-05 68.1126V28.1126ZM20 48.1126V32.1104H-20V48.1126H20ZM1.42029 52.0599C28.1439 50.1573 53.7732 30.0573 53.7732 0.42943H13.7732C13.7732 4.13101 9.67933 11.3706 -1.42029 12.1609L1.42029 52.0599ZM53.7732 0.42943V0.429295H13.7732V0.42943H53.7732ZM33.7732 20.4293H36.8442V-19.5707H33.7732V20.4293ZM16.8442 0.428711V0.429295H56.8442V0.428711H16.8442ZM1447.16 -19.5713H36.8442V20.4287H1447.16V-19.5713ZM1467.16 0.42878V0.428711H1427.16V0.42878H1467.16ZM1447.28 -19.5712H1447.16V20.4288H1447.28V-19.5712ZM1484 9.56889C1472.61 9.56886 1467.56 2.3678 1467.19 -1.47529L1427.37 2.33285C1430.13 31.1242 1456.76 49.5688 1484 49.5689L1484 9.56889ZM1464 19.428L1464 29.5682L1504 29.5696L1504 19.4294L1464 19.428ZM1504 473.429L1504 19.4287L1464 19.4287L1464 473.429L1504 473.429ZM1484.14 453.428L1483.97 453.429L1484.03 493.429L1484.2 493.428L1484.14 453.428ZM1504.17 489.432V473.428H1464.17V489.432H1504.17ZM1470.4 521.113C1470.4 517.411 1474.49 510.172 1485.59 509.381L1482.75 469.482C1456.03 471.385 1430.4 491.485 1430.4 521.113H1470.4ZM1447.16 541.113H1450.4V501.113H1447.16V541.113ZM1467.16 521.428V521.113H1427.16V521.428H1467.16ZM55.2652 541.428L1447.16 541.428L1447.16 501.428L55.2652 501.428L55.2652 541.428ZM75.2652 521.429V521.428H35.2652V521.429H75.2652ZM36.718 541.429H55.2652V501.429H36.718V541.429ZM9.24188e-05 512.288C11.3917 512.288 16.4413 519.489 16.8087 523.332L56.6272 519.525C53.8747 490.733 27.2379 472.288 0.000408425 472.288L9.24188e-05 512.288ZM-19.9997 487.872V492.288H20.0003V487.872H-19.9997ZM3.5026e-05 507.872H0.000250422V467.872H3.5026e-05V507.872ZM-20 48.1126V487.872H20V48.1126H-20ZM47.9435 39.4287H1433.7V-0.571289H47.9435V39.4287ZM1416.2 29.112C1425.26 45.4917 1441.4 57.166 1459.93 62.0244L1470.07 23.3334C1460.96 20.9417 1454.41 15.5466 1451.2 9.74541L1416.2 29.112ZM1445 42.6789V476.632H1485V42.6789H1445ZM1458.41 457.748C1449.59 460.824 1441.51 465.473 1434.67 471.436L1460.95 501.594C1463.81 499.1 1467.4 496.975 1471.59 495.515L1458.41 457.748ZM1467.81 486.515V485.873H1427.81V486.515H1467.81ZM1467.81 485.873V36.8682H1427.81V485.873H1467.81ZM1467.81 36.8682V34.8682H1427.81V36.8682H1467.81ZM1447.81 14.8682H1445.81V54.8682H1447.81V14.8682ZM1445.81 14.8682H38.8438V54.8682H1445.81V14.8682ZM38.8438 14.8682H36.8438V54.8682H38.8438V14.8682ZM16.8438 34.8682V36.8682H56.8438V34.8682H16.8438ZM16.8438 36.8682V485.873H56.8438V36.8682H16.8438ZM16.8438 485.873V487.501H56.8438V485.873H16.8438ZM48.5239 471.266C41.3005 466.069 33.0035 462.175 24.0749 459.833L13.9251 498.523C18.2273 499.652 22.0256 501.478 25.1636 503.736L48.5239 471.266ZM39 479.178V44.9688H-0.999966V479.178H39ZM29.5941 11.4727C27.056 17.3264 21.1936 23.0532 12.4733 26.0638L25.5268 63.8739C43.4759 57.6772 58.7449 44.7934 66.2929 27.3847L29.5941 11.4727ZM1446.32 467.873H1445.81V507.873H1446.32V467.873ZM1454.51 510.227C1455.66 507.51 1457.5 504.824 1460.08 502.387L1432.55 473.359C1426.28 479.308 1421.12 486.485 1417.68 494.629L1454.51 510.227ZM50.2981 522.428H1436.09V482.428H50.2981V522.428ZM25.4709 503.96C28.7417 506.376 31.1866 509.198 32.7985 512.111L67.7976 492.745C63.2052 484.445 56.7853 477.361 49.2358 471.785L25.4709 503.96ZM38.8438 467.873H37.3533V507.873H38.8438V467.873ZM1445.81 467.873H38.8438V507.873H1445.81V467.873ZM1445.81 16.8682H38.8438V56.8682H1445.81V16.8682ZM1465.81 485.873V36.8682H1425.81V485.873H1465.81ZM38.8438 505.873H1445.81V465.873H38.8438V505.873ZM18.8438 36.8682V485.873H58.8438V36.8682H18.8438Z" fill="#7D6313" mask="url(#path-1-inside-1_287_1956)"/>
</svg>
